# FreeCAD v0.19 build22284 (Git) Arch module
# http://www.freecadweb.org
mtllib 1.mtl
o Solid
usemtl color_e7e7e7
v -8.000368 1.0 40.299995
v -8.300366 1.0 40.0
v -9.600365 1.0 45.687
v -85.68737 1.0 70.400002
v -93.68737 1.0 78.399994
v -91.424629 1.0 78.399994
v -8.000368 1.0 45.024261
v -85.024628 1.0 72.0
v -158.40036 1.0 53.687004
v -160.000366 1.0 80.0
v -158.40036 1.0 78.399994
v -0.000367 1.0 44.5
v -1.600364 1.0 53.687004
v -0.000367 1.0 80.0
v -160.000366 1.0 44.5
v -1.600364 1.0 51.424259
v -158.40036 1.0 51.424259
v -1.600364 1.0 44.5
v -158.40036 1.0 44.5
v -80.300369 1.0 72.0
v -9.600365 1.0 34.312996
v -8.000368 1.0 39.700005
v -150.40036 1.0 45.686996
v -152.000366 1.0 45.024261
v -8.000368 1.0 34.975735
v -80.000366 1.0 71.699997
v -68.576103 1.0 78.399994
v -75.500366 1.0 78.399994
v -75.500366 1.0 80.0
v -152.000366 1.0 40.300007
v -74.313362 1.0 70.400002
v -79.700363 1.0 72.0
v -1.600364 1.0 28.575739
v -74.976097 1.0 72.0
v -151.700363 1.0 40.0
v -1.600364 1.0 35.5
v -0.000367 1.0 35.5
v -1.600364 1.0 26.312992
v -66.313354 1.0 78.399994
v -158.40036 1.0 28.575737
v -160.000366 1.0 35.5
v -158.40036 1.0 35.5
v -0.000367 1.0 0.0
v -66.313354 1.0 1.599997
v -1.600364 1.0 1.599997
v -150.40036 1.0 34.313
v -152.000366 1.0 34.975735
v -152.000366 1.0 39.699993
v -93.68737 1.0 1.599997
v -160.000366 1.0 0.0
v -158.40036 1.0 1.599997
v -75.500366 1.0 0.0
v -84.500366 1.0 0.0
v -91.424629 1.0 1.599997
v -85.68737 1.0 9.599998
v -158.40036 1.0 26.312992
v -85.024628 1.0 7.999997
v -80.300369 1.0 7.999997
v -105.024628 1.0 78.399994
v -80.000366 1.0 8.299999
v -104.600365 1.0 78.699997
v -84.500366 1.0 1.599997
v -104.812492 1.0 78.487862
v -104.874626 1.0 78.440186
v -104.946983 1.0 78.410217
v -74.313362 1.0 9.599998
v -79.700363 1.0 7.999997
v -74.976097 1.0 7.999997
v -104.290909 1.0 78.422836
v -104.342773 1.0 78.450554
v -104.388229 1.0 78.487862
v -1.600364 1.0 78.399994
v -104.234627 1.0 78.405762
v -104.176102 1.0 78.399994
v -68.576103 1.0 1.599997
v -75.500366 1.0 1.599997
v -84.500366 1.0 80.0
v -84.500366 1.0 78.399994
v -152.000366 0.0 45.024261
v -158.40036 0.0 51.424259
v -151.700363 0.0 40.0
v -152.000366 0.0 40.300007
v -152.000366 0.0 34.975735
v -152.000366 0.0 39.699993
v -158.40036 0.0 28.575737
v -160.000366 0.0 80.0
v -160.000366 0.0 44.5
v -160.000366 0.0 0.0
v -160.000366 0.0 35.5
v -85.024628 0.0 7.999997
v -91.424629 0.0 1.599997
v -80.300369 0.0 7.999997
v -80.000366 0.0 8.299999
v -79.700363 0.0 7.999997
v -74.976097 0.0 7.999997
v -68.576103 0.0 1.599997
v -84.500366 0.0 0.0
v -75.500366 0.0 0.0
v -0.000367 0.0 0.0
v -158.40036 0.0 35.5
v -1.600364 0.0 35.5
v -0.000367 0.0 35.5
v -8.000368 0.0 34.975735
v -1.600364 0.0 28.575739
v -8.300366 0.0 40.0
v -8.000368 0.0 39.700005
v -8.000368 0.0 40.299995
v -8.000368 0.0 45.024261
v -158.40036 0.0 44.5
v -1.600364 0.0 44.5
v -0.000367 0.0 44.5
v -0.000367 0.0 80.0
v -84.500366 0.0 80.0
v -75.500366 0.0 80.0
v -75.500366 0.0 1.599997
v -75.500366 0.0 78.399994
v -74.976097 0.0 72.0
v -68.576103 0.0 78.399994
v -80.000366 0.0 71.699997
v -79.700363 0.0 72.0
v -80.300369 0.0 72.0
v -85.024628 0.0 72.0
v -84.500366 0.0 1.599997
v -84.500366 0.0 78.399994
v -93.68737 0.0 1.599997
v -85.68737 0.0 9.599998
v -150.40036 0.0 34.313
v -158.40036 0.0 26.312992
v -150.40036 0.0 45.686996
v -158.40036 0.0 53.687004
v -158.40036 0.0 1.599997
v -158.40036 0.0 78.399994
v -105.024628 0.0 78.399994
v -104.946983 0.0 78.410217
v -104.874626 0.0 78.440186
v -104.812492 0.0 78.487862
v -104.600365 0.0 78.699997
v -104.388229 0.0 78.487862
v -104.342773 0.0 78.450554
v -104.290909 0.0 78.422836
v -104.234627 0.0 78.405762
v -104.176102 0.0 78.399994
v -85.68737 0.0 70.400002
v -93.68737 0.0 78.399994
v -74.313362 0.0 70.400002
v -66.313354 0.0 78.399994
v -1.600364 0.0 53.687004
v -9.600365 0.0 45.687
v -9.600365 0.0 34.312996
v -1.600364 0.0 26.312992
v -1.600364 0.0 51.424259
v -1.600364 0.0 78.399994
v -1.600364 0.0 1.599997
v -66.313354 0.0 1.599997
v -74.313362 0.0 9.599998
v -91.424629 0.0 78.399994
vn 0.0 1.0 0.0
vn 0.0 1.0 0.0
vn 0.0 1.0 -0.0
vn 0.0 1.0 -0.0
vn 0.0 1.0 -0.0
vn 0.0 1.0 -0.0
vn 0.0 1.0 0.0
vn 0.0 1.0 0.0
vn 0.0 1.0 0.0
vn 0.0 1.0 0.0
vn 0.0 1.0 -0.0
vn 0.0 1.0 0.0
vn 0.0 1.0 0.0
vn 0.0 1.0 0.0
vn 0.0 1.0 0.0
vn 0.0 1.0 0.0
vn 0.0 1.0 -0.0
vn 0.0 1.0 0.0
vn 0.0 1.0 0.0
vn 0.0 1.0 0.0
vn 0.0 1.0 0.0
vn 0.0 1.0 0.0
vn 0.0 1.0 0.0
vn 0.0 1.0 -0.0
vn 0.0 1.0 -0.0
vn 0.0 1.0 0.0
vn 0.0 1.0 0.0
vn 0.0 1.0 0.0
vn 0.0 1.0 0.0
vn 0.0 1.0 -0.0
vn 0.0 1.0 0.0
vn 0.0 1.0 -0.0
vn 0.0 1.0 0.0
vn 0.0 1.0 0.0
vn 0.0 1.0 -0.0
vn 0.0 1.0 0.0
vn 0.0 1.0 -0.0
vn 0.0 1.0 0.0
vn 0.0 1.0 0.0
vn 0.0 1.0 0.0
vn 0.0 1.0 0.0
vn 0.0 1.0 0.0
vn 0.0 1.0 -0.0
vn 0.0 1.0 -0.0
vn 0.0 1.0 0.0
vn 0.0 1.0 0.0
vn 0.0 1.0 0.0
vn 0.0 1.0 0.0
vn 0.0 1.0 0.0
vn 0.0 1.0 0.0
vn 0.0 1.0 -0.0
vn 0.0 1.0 -0.0
vn 0.0 1.0 0.0
vn 0.0 1.0 0.0
vn 0.0 1.0 0.0
vn 0.0 1.0 0.0
vn 0.0 1.0 0.0
vn 0.0 1.0 -0.0
vn 0.0 1.0 0.0
vn 0.0 1.0 0.0
vn 0.0 1.0 -0.0
vn 0.0 1.0 0.0
vn 0.0 1.0 0.0
vn 0.0 1.0 0.0
vn 0.0 1.0 0.0
vn 0.0 1.0 0.0
vn 0.0 1.0 0.0
vn 0.0 1.0 0.0
vn 0.0 1.0 0.0
vn 0.0 1.0 0.0
vn 0.0 1.0 0.0
vn 0.0 1.0 0.0
vn 0.0 1.0 0.0
vn 0.0 1.0 -0.0
vn 0.0 1.0 0.0
vn 0.0 1.0 -0.0
vn 0.0 1.0 -0.0
vn 0.0 1.0 0.0
vn -0.7071070075035095 -0.0 -0.7071065902709961
vn -0.7071070075035095 0.0 -0.7071065902709961
vn -0.7071112990379333 -0.0 -0.7071022987365723
vn -0.7071112990379333 -0.0 -0.7071022987365723
vn -1.0 0.0 -0.0
vn -1.0 -0.0 0.0
vn -1.0 0.0 -0.0
vn -1.0 -0.0 0.0
vn -0.7071070075035095 0.0 0.7071065902709961
vn -0.7071070075035095 0.0 0.7071065902709961
vn -1.0 0.0 0.0
vn -1.0 -0.0 -0.0
vn -1.0 0.0 -0.0
vn -1.0 -0.0 0.0
vn 0.7071067094802856 0.0 -0.7071068286895752
vn 0.7071067094802856 0.0 -0.7071068286895752
vn 0.7071056365966797 0.0 -0.7071079015731812
vn 0.7071056365966797 0.0 -0.7071079015731812
vn -0.7071056365966797 -0.0 -0.7071079015731812
vn -0.7071056365966797 -0.0 -0.7071079015731812
vn 0.0 0.0 -1.0
vn 0.0 0.0 -1.0
vn 0.0 0.0 -1.0
vn 0.0 0.0 -1.0
vn -0.7071071267127991 0.0 -0.7071064710617065
vn -0.7071071267127991 -0.0 -0.7071064710617065
vn 0.0 0.0 -1.0
vn 0.0 0.0 -1.0
vn -7.180146919822607e-19 0.0 -1.0
vn -7.180146919822607e-19 0.0 -1.0
vn 0.0 0.0 1.0
vn 0.0 0.0 1.0
vn 0.0 0.0 1.0
vn 0.0 0.0 1.0
vn 0.707106351852417 0.0 0.7071073055267334
vn 0.707106351852417 -0.0 0.7071073055267334
vn 0.707103431224823 -0.0 0.7071101665496826
vn 0.707103431224823 -0.0 0.7071101665496826
vn 0.707103431224823 0.0 -0.7071101665496826
vn 0.707103431224823 0.0 -0.7071101665496826
vn 1.0 0.0 0.0
vn 1.0 0.0 0.0
vn 1.0 0.0 0.0
vn 1.0 0.0 0.0
vn 0.0 0.0 -1.0
vn 0.0 0.0 -1.0
vn 0.0 0.0 -1.0
vn 0.0 0.0 -1.0
vn 1.0 0.0 0.0
vn 1.0 0.0 0.0
vn 1.0 0.0 0.0
vn 1.0 0.0 0.0
vn 0.0 0.0 1.0
vn 0.0 0.0 1.0
vn 0.0 0.0 1.0
vn 0.0 0.0 1.0
vn -1.0 0.0 -0.0
vn -1.0 -0.0 0.0
vn -1.0 0.0 -0.0
vn -1.0 -0.0 0.0
vn -0.7071067690849304 0.0 0.7071067690849304
vn -0.7071067690849304 0.0 0.7071067690849304
vn -0.7071068286895752 0.0 0.7071068286895752
vn -0.7071068286895752 0.0 0.7071068286895752
vn 0.7071068286895752 -0.0 0.7071068286895752
vn 0.7071068286895752 0.0 0.7071068286895752
vn 0.0 0.0 1.0
vn 0.0 0.0 1.0
vn 0.0 0.0 1.0
vn 0.0 0.0 1.0
vn 1.0 0.0 0.0
vn 1.0 0.0 0.0
vn 1.0 0.0 0.0
vn 1.0 0.0 0.0
vn -0.7071068286895752 0.0 0.7071066498756409
vn -0.7071068286895752 0.0 0.7071066498756409
vn 0.7071071267127991 0.0 -0.7071064114570618
vn 0.7071071267127991 0.0 -0.7071064114570618
vn 1.0 0.0 0.0
vn 1.0 0.0 0.0
vn 0.7071071267127991 -0.0 0.7071064114570618
vn 0.7071071267127991 0.0 0.7071064114570618
vn 1.0 0.0 0.0
vn 1.0 0.0 0.0
vn 1.0 0.0 0.0
vn 1.0 0.0 0.0
vn 1.0 0.0 0.0
vn 1.0 0.0 0.0
vn 1.0 0.0 0.0
vn 1.0 0.0 0.0
vn 0.13054271042346954 0.0 -0.9914426207542419
vn 0.13054271042346954 0.0 -0.9914426207542419
vn 0.3826500475406647 0.0 -0.923893392086029
vn 0.3826500475406647 0.0 -0.923893392086029
vn 0.6087546348571777 0.0 -0.793358564376831
vn 0.6087546348571777 0.0 -0.793358564376831
vn 0.7071195244789124 0.0 -0.7070940732955933
vn 0.7071195244789124 0.0 -0.7070940732955933
vn -0.7071068286895752 -0.0 -0.7071068286895752
vn -0.7071068286895752 0.0 -0.7071068286895752
vn -0.6344239711761475 0.0 -0.7729852795600891
vn -0.6344239711761475 -0.0 -0.7729852795600891
vn -0.4713355004787445 0.0 -0.8819539546966553
vn -0.4713355004787445 -0.0 -0.8819539546966553
vn -0.2903098165988922 0.0 -0.9569327235221863
vn -0.2903098165988922 -0.0 -0.9569327235221863
vn -0.09807784110307693 0.0 -0.995178759098053
vn -0.09807784110307693 -0.0 -0.995178759098053
vn -0.7071064114570618 0.0 -0.7071070671081543
vn -0.7071064114570618 -0.0 -0.7071070671081543
vn 0.0 0.0 -1.0
vn 0.0 0.0 -1.0
vn 0.7071061134338379 0.0 -0.7071074843406677
vn 0.7071061134338379 0.0 -0.7071074843406677
vn -0.70710688829422 0.0 0.7071066498756409
vn -0.70710688829422 0.0 0.7071066498756409
vn -1.0 0.0 -0.0
vn -1.0 -0.0 0.0
vn -0.70710688829422 0.0 -0.7071066498756409
vn -0.70710688829422 -0.0 -0.7071066498756409
vn -1.0 0.0 -0.0
vn -1.0 -0.0 0.0
vn -1.0 0.0 -0.0
vn -1.0 -0.0 0.0
vn -1.0 0.0 0.0
vn -1.0 -0.0 -0.0
vn -1.0 0.0 -0.0
vn -1.0 -0.0 0.0
vn 0.0 0.0 1.0
vn 0.0 0.0 1.0
vn 0.0 0.0 1.0
vn 0.0 0.0 1.0
vn 0.0 0.0 1.0
vn 0.0 0.0 1.0
vn 0.0 0.0 1.0
vn 0.0 0.0 1.0
vn 0.7071065306663513 -0.0 0.7071070671081543
vn 0.7071065306663513 0.0 0.7071070671081543
vn 0.0 0.0 1.0
vn 0.0 0.0 1.0
vn 0.0 0.0 -1.0
vn 0.0 0.0 -1.0
vn 0.0 0.0 -1.0
vn 0.0 0.0 -1.0
vn 0.0 0.0 -1.0
vn 0.0 0.0 -1.0
vn 0.0 0.0 -1.0
vn 0.0 0.0 -1.0
vn 0.707106351852417 -0.0 0.7071071863174438
vn 0.707106351852417 0.0 0.7071071863174438
vn 0.0 0.0 -1.0
vn 0.0 0.0 -1.0
vn 0.7071064114570618 0.0 -0.7071071863174438
vn 0.7071064114570618 0.0 -0.7071071863174438
vn -0.7071112990379333 0.0 0.7071022987365723
vn -0.7071112990379333 0.0 0.7071022987365723
vn 0.0 -1.0 0.0
vn 0.0 -1.0 0.0
vn 0.0 -1.0 0.0
vn 0.0 -1.0 0.0
vn 0.0 -1.0 0.0
vn -0.0 -1.0 0.0
vn 0.0 -1.0 0.0
vn -0.0 -1.0 0.0
vn 0.0 -1.0 0.0
vn -0.0 -1.0 0.0
vn 0.0 -1.0 0.0
vn 0.0 -1.0 0.0
vn 0.0 -1.0 0.0
vn -0.0 -1.0 0.0
vn 0.0 -1.0 0.0
vn 0.0 -1.0 0.0
vn 0.0 -1.0 0.0
vn 0.0 -1.0 0.0
vn 0.0 -1.0 0.0
vn 0.0 -1.0 0.0
vn 0.0 -1.0 0.0
vn 0.0 -1.0 0.0
vn 0.0 -1.0 0.0
vn -0.0 -1.0 0.0
vn 0.0 -1.0 0.0
vn 0.0 -1.0 0.0
vn 0.0 -1.0 0.0
vn 0.0 -1.0 0.0
vn 0.0 -1.0 0.0
vn 0.0 -1.0 0.0
vn 0.0 -1.0 0.0
vn 0.0 -1.0 0.0
vn -0.0 -1.0 0.0
vn -0.0 -1.0 0.0
vn 0.0 -1.0 0.0
vn -0.0 -1.0 0.0
vn 0.0 -1.0 0.0
vn 0.0 -1.0 0.0
vn 0.0 -1.0 0.0
vn 0.0 -1.0 0.0
vn 0.0 -1.0 0.0
vn -0.0 -1.0 0.0
vn -0.0 -1.0 0.0
vn 0.0 -1.0 0.0
vn 0.0 -1.0 0.0
vn 0.0 -1.0 0.0
vn 0.0 -1.0 0.0
vn 0.0 -1.0 0.0
vn -0.0 -1.0 0.0
vn 0.0 -1.0 0.0
vn -0.0 -1.0 0.0
vn 0.0 -1.0 0.0
vn 0.0 -1.0 0.0
vn 0.0 -1.0 0.0
vn -0.0 -1.0 0.0
vn -0.0 -1.0 0.0
vn 0.0 -1.0 0.0
vn 0.0 -1.0 0.0
vn 0.0 -1.0 0.0
vn -0.0 -1.0 0.0
vn 0.0 -1.0 0.0
vn 0.0 -1.0 0.0
vn 0.0 -1.0 0.0
vn -0.0 -1.0 0.0
vn 0.0 -1.0 0.0
vn 0.0 -1.0 0.0
vn 0.0 -1.0 0.0
vn 0.0 -1.0 0.0
vn 0.0 -1.0 0.0
vn 0.0 -1.0 0.0
vn 0.0 -1.0 0.0
vn 0.0 -1.0 0.0
vn -0.0 -1.0 0.0
vn -0.0 -1.0 0.0
vn 0.0 -1.0 0.0
vn -0.0 -1.0 0.0
vn 0.0 -1.0 0.0
vn 0.0 -1.0 0.0
f 1//1 2//1 3//1 
f 4//2 5//2 6//2 
f 1//3 3//3 7//3 
f 4//4 6//4 8//4 
f 9//5 10//5 11//5 
f 12//6 13//6 14//6 
f 15//7 10//7 9//7 
f 12//8 16//8 13//8 
f 15//9 9//9 17//9 
f 12//10 18//10 16//10 
f 19//11 15//11 17//11 
f 20//12 4//12 8//12 
f 21//13 3//13 2//13 
f 21//14 2//14 22//14 
f 23//15 24//15 17//15 
f 23//16 17//16 9//16 
f 25//17 21//17 22//17 
f 26//18 4//18 20//18 
f 27//19 28//19 29//19 
f 30//20 24//20 23//20 
f 31//21 26//21 32//21 
f 33//22 21//22 25//22 
f 31//23 32//23 34//23 
f 31//24 34//24 27//24 
f 35//25 30//25 23//25 
f 33//26 36//26 37//26 
f 31//27 4//27 26//27 
f 38//28 33//28 37//28 
f 39//29 31//29 27//29 
f 38//30 21//30 33//30 
f 39//31 27//31 29//31 
f 40//32 41//32 42//32 
f 43//33 44//33 45//33 
f 43//34 45//34 38//34 
f 46//35 35//35 23//35 
f 46//36 47//36 48//36 
f 43//37 38//37 37//37 
f 49//38 50//38 51//38 
f 46//39 48//39 35//39 
f 46//40 40//40 47//40 
f 43//41 52//41 44//41 
f 53//42 50//42 49//42 
f 54//43 49//43 55//43 
f 56//44 41//44 40//44 
f 56//45 40//45 46//45 
f 57//46 54//46 55//46 
f 58//47 57//47 55//47 
f 59//48 11//48 10//48 
f 60//49 58//49 55//49 
f 61//50 59//50 10//50 
f 53//51 54//51 62//51 
f 63//52 59//52 61//52 
f 63//53 64//53 65//53 
f 53//54 49//54 54//54 
f 63//55 65//55 59//55 
f 66//56 67//56 60//56 
f 66//57 60//57 55//57 
f 68//58 67//58 66//58 
f 14//59 39//59 29//59 
f 69//60 70//60 71//60 
f 72//61 39//61 14//61 
f 73//62 69//62 71//62 
f 74//63 71//63 61//63 
f 74//64 73//64 71//64 
f 75//65 52//65 76//65 
f 75//66 68//66 66//66 
f 5//67 74//67 61//67 
f 44//68 52//68 75//68 
f 44//69 75//69 66//69 
f 77//70 61//70 10//70 
f 77//71 5//71 61//71 
f 13//72 72//72 14//72 
f 77//73 6//73 5//73 
f 78//74 6//74 77//74 
f 50//75 41//75 56//75 
f 51//76 50//76 56//76 
f 16//77 3//77 13//77 
f 16//78 7//78 3//78 
f 17//79 79//79 80//79 
f 17//80 24//80 79//80 
f 35//81 81//81 82//81 
f 30//82 35//82 82//82 
f 24//83 30//83 82//83 
f 24//84 82//84 79//84 
f 48//85 47//85 83//85 
f 48//86 83//86 84//86 
f 40//87 85//87 83//87 
f 40//88 83//88 47//88 
f 86//89 15//89 87//89 
f 10//90 15//90 86//90 
f 41//91 50//91 88//91 
f 41//92 88//92 89//92 
f 54//93 57//93 90//93 
f 91//94 54//94 90//94 
f 92//95 58//95 60//95 
f 92//96 60//96 93//96 
f 67//97 94//97 93//97 
f 60//98 67//98 93//98 
f 90//99 57//99 58//99 
f 90//100 58//100 92//100 
f 94//101 68//101 95//101 
f 94//102 67//102 68//102 
f 95//103 75//103 96//103 
f 68//104 75//104 95//104 
f 88//105 50//105 53//105 
f 88//106 53//106 97//106 
f 98//107 52//107 43//107 
f 98//108 43//108 99//108 
f 42//109 41//109 89//109 
f 42//110 89//110 100//110 
f 37//111 36//111 101//111 
f 37//112 101//112 102//112 
f 33//113 25//113 103//113 
f 104//114 33//114 103//114 
f 105//115 22//115 2//115 
f 106//116 22//116 105//116 
f 105//117 2//117 1//117 
f 105//118 1//118 107//118 
f 22//119 106//119 103//119 
f 22//120 103//120 25//120 
f 7//121 108//121 107//121 
f 7//122 107//122 1//122 
f 87//123 15//123 19//123 
f 87//124 19//124 109//124 
f 110//125 18//125 12//125 
f 110//126 12//126 111//126 
f 37//127 102//127 99//127 
f 37//128 99//128 43//128 
f 112//129 111//129 12//129 
f 14//130 112//130 12//130 
f 77//131 10//131 86//131 
f 77//132 86//132 113//132 
f 14//133 29//133 114//133 
f 14//134 114//134 112//134 
f 76//135 52//135 98//135 
f 76//136 98//136 115//136 
f 29//137 28//137 116//137 
f 29//138 116//138 114//138 
f 34//139 117//139 118//139 
f 34//140 118//140 27//140 
f 26//141 119//141 120//141 
f 26//142 120//142 32//142 
f 119//143 26//143 20//143 
f 119//144 20//144 121//144 
f 34//145 32//145 120//145 
f 34//146 120//146 117//146 
f 20//147 8//147 122//147 
f 20//148 122//148 121//148 
f 62//149 123//149 97//149 
f 62//150 97//150 53//150 
f 77//151 113//151 124//151 
f 77//152 124//152 78//152 
f 49//153 125//153 126//153 
f 49//154 126//154 55//154 
f 56//155 46//155 127//155 
f 128//156 56//156 127//156 
f 23//157 129//157 127//157 
f 23//158 127//158 46//158 
f 129//159 23//159 9//159 
f 129//160 9//160 130//160 
f 17//161 80//161 109//161 
f 17//162 109//162 19//162 
f 100//163 85//163 40//163 
f 42//164 100//164 40//164 
f 56//165 128//165 131//165 
f 56//166 131//166 51//166 
f 132//167 130//167 9//167 
f 11//168 132//168 9//168 
f 133//169 59//169 65//169 
f 133//170 65//170 134//170 
f 135//171 65//171 64//171 
f 134//172 65//172 135//172 
f 135//173 64//173 63//173 
f 135//174 63//174 136//174 
f 136//175 63//175 61//175 
f 136//176 61//176 137//176 
f 61//177 138//177 137//177 
f 61//178 71//178 138//178 
f 71//179 70//179 139//179 
f 71//180 139//180 138//180 
f 70//181 69//181 140//181 
f 70//182 140//182 139//182 
f 69//183 73//183 141//183 
f 69//184 141//184 140//184 
f 73//185 74//185 142//185 
f 73//186 142//186 141//186 
f 5//187 4//187 143//187 
f 5//188 143//188 144//188 
f 143//189 4//189 31//189 
f 143//190 31//190 145//190 
f 145//191 39//191 146//191 
f 145//192 31//192 39//192 
f 3//193 147//193 13//193 
f 3//194 148//194 147//194 
f 3//195 21//195 149//195 
f 3//196 149//196 148//196 
f 149//197 38//197 150//197 
f 21//198 38//198 149//198 
f 36//199 33//199 104//199 
f 36//200 104//200 101//200 
f 16//201 18//201 110//201 
f 16//202 110//202 151//202 
f 152//203 13//203 147//203 
f 72//204 13//204 152//204 
f 38//205 45//205 153//205 
f 38//206 153//206 150//206 
f 62//207 54//207 91//207 
f 62//208 91//208 123//208 
f 75//209 76//209 115//209 
f 75//210 115//210 96//210 
f 125//211 51//211 131//211 
f 49//212 51//212 125//212 
f 153//213 44//213 154//213 
f 45//214 44//214 153//214 
f 154//215 44//215 66//215 
f 154//216 66//216 155//216 
f 66//217 55//217 126//217 
f 66//218 126//218 155//218 
f 74//219 5//219 144//219 
f 142//220 74//220 144//220 
f 132//221 11//221 59//221 
f 132//222 59//222 133//222 
f 39//223 72//223 152//223 
f 146//224 39//224 152//224 
f 156//225 6//225 78//225 
f 156//226 78//226 124//226 
f 122//227 8//227 6//227 
f 122//228 6//228 156//228 
f 116//229 28//229 27//229 
f 116//230 27//230 118//230 
f 7//231 16//231 151//231 
f 108//232 7//232 151//232 
f 35//233 84//233 81//233 
f 48//234 84//234 35//234 
f 111//235 112//235 147//235 
f 111//236 147//236 151//236 
f 111//237 151//237 110//237 
f 130//238 132//238 86//238 
f 149//239 105//239 148//239 
f 121//240 122//240 143//240 
f 149//241 106//241 105//241 
f 119//242 121//242 143//242 
f 87//243 130//243 86//243 
f 103//244 106//244 149//244 
f 87//245 80//245 130//245 
f 109//246 80//246 87//246 
f 118//247 114//247 116//247 
f 129//248 80//248 79//248 
f 129//249 130//249 80//249 
f 104//250 103//250 149//250 
f 104//251 102//251 101//251 
f 145//252 119//252 143//252 
f 145//253 118//253 117//253 
f 145//254 117//254 120//254 
f 150//255 104//255 149//255 
f 145//256 120//256 119//256 
f 150//257 102//257 104//257 
f 146//258 118//258 145//258 
f 146//259 114//259 118//259 
f 99//260 154//260 98//260 
f 99//261 150//261 153//261 
f 82//262 129//262 79//262 
f 99//263 153//263 154//263 
f 99//264 102//264 150//264 
f 81//265 129//265 82//265 
f 88//266 97//266 125//266 
f 113//267 86//267 137//267 
f 125//268 131//268 88//268 
f 91//269 126//269 125//269 
f 90//270 126//270 91//270 
f 85//271 100//271 89//271 
f 127//272 129//272 81//272 
f 92//273 126//273 90//273 
f 127//274 81//274 84//274 
f 127//275 84//275 83//275 
f 127//276 83//276 85//276 
f 93//277 126//277 92//277 
f 128//278 85//278 89//278 
f 128//279 127//279 85//279 
f 133//280 86//280 132//280 
f 97//281 123//281 91//281 
f 97//282 91//282 125//282 
f 137//283 86//283 133//283 
f 155//284 93//284 94//284 
f 155//285 126//285 93//285 
f 136//286 133//286 134//286 
f 136//287 134//287 135//287 
f 95//288 155//288 94//288 
f 136//289 137//289 133//289 
f 112//290 114//290 146//290 
f 152//291 112//291 146//291 
f 140//292 138//292 139//292 
f 141//293 138//293 140//293 
f 96//294 115//294 98//294 
f 142//295 137//295 138//295 
f 142//296 138//296 141//296 
f 96//297 155//297 95//297 
f 154//298 96//298 98//298 
f 144//299 137//299 142//299 
f 154//300 155//300 96//300 
f 113//301 137//301 144//301 
f 113//302 144//302 156//302 
f 147//303 112//303 152//303 
f 124//304 113//304 156//304 
f 88//305 128//305 89//305 
f 151//306 148//306 108//306 
f 131//307 128//307 88//307 
f 151//308 147//308 148//308 
f 107//309 108//309 148//309 
f 107//310 148//310 105//310 
f 143//311 156//311 144//311 
f 143//312 122//312 156//312 
