# FreeCAD v0.19 build22284 (Git) Arch module
# http://www.freecadweb.org
mtllib 5.mtl
o Solid
usemtl color_e7e7e7
v -27.999985 1.0 38.5
v -39.0 1.0 38.5
v -39.999985 1.0 40.0
v -24.099991 1.0 40.0
v -26.999985 1.0 38.5
v -24.099991 1.0 38.5
v -26.999985 1.0 30.499998
v -27.999985 1.0 29.499998
v -12.999985 1.0 38.5
v -15.899994 1.0 38.5
v -15.899994 1.0 40.0
v -11.999985 1.0 38.5
v -12.999985 1.0 30.499998
v -11.999985 1.0 29.499998
v -39.0 1.0 1.5
v 0.0 1.0 40.0
v -39.999985 1.0 0.0
v -1.0 1.0 38.5
v -1.0 1.0 1.5
v 0.0 1.0 0.0
v -27.999985 0.0 29.499998
v -27.999985 0.0 38.5
v -39.0 0.0 1.5
v -39.0 0.0 38.5
v -1.0 0.0 1.5
v -1.0 0.0 38.5
v -11.999985 0.0 29.499998
v -11.999985 0.0 38.5
v -39.999985 0.0 40.0
v -24.099991 0.0 40.0
v -26.999985 0.0 38.5
v -24.099991 0.0 38.5
v -26.999985 0.0 30.499998
v -12.999985 0.0 38.5
v -15.899994 0.0 40.0
v -15.899994 0.0 38.5
v -12.999985 0.0 30.499998
v 0.0 0.0 40.0
v -39.999985 0.0 0.0
v 0.0 0.0 0.0
vn 0.0 1.0 0.0
vn 0.0 1.0 0.0
vn 0.0 1.0 0.0
vn 0.0 1.0 -0.0
vn 0.0 1.0 0.0
vn 0.0 1.0 -0.0
vn 0.0 1.0 0.0
vn 0.0 1.0 0.0
vn 0.0 1.0 0.0
vn 0.0 1.0 0.0
vn 0.0 1.0 0.0
vn 0.0 1.0 -0.0
vn 0.0 1.0 -0.0
vn 0.0 1.0 0.0
vn 0.0 1.0 0.0
vn 0.0 1.0 -0.0
vn 0.0 1.0 0.0
vn 0.0 1.0 0.0
vn 0.0 1.0 0.0
vn 0.0 1.0 -0.0
vn -1.0 -0.0 0.0
vn -1.0 0.0 -0.0
vn 1.0 0.0 0.0
vn 1.0 0.0 0.0
vn -1.0 0.0 -0.0
vn -1.0 -0.0 0.0
vn 0.0 0.0 1.0
vn 0.0 0.0 1.0
vn 0.0 0.0 -1.0
vn 0.0 0.0 -1.0
vn 1.0 0.0 0.0
vn 1.0 0.0 0.0
vn 0.0 0.0 -1.0
vn 0.0 0.0 -1.0
vn 0.0 0.0 -1.0
vn 0.0 0.0 -1.0
vn 0.0 -1.0 0.0
vn -0.0 -1.0 0.0
vn 0.0 -1.0 0.0
vn 0.0 -1.0 0.0
vn -0.0 -1.0 0.0
vn 0.0 -1.0 0.0
vn 0.0 -1.0 0.0
vn 0.0 -1.0 0.0
vn 0.0 -1.0 0.0
vn 0.0 -1.0 0.0
vn 0.0 -1.0 0.0
vn 0.0 -1.0 0.0
vn 0.0 -1.0 0.0
vn -0.0 -1.0 0.0
vn 0.0 -1.0 0.0
vn 0.0 -1.0 0.0
vn -0.0 -1.0 0.0
vn 0.0 -1.0 0.0
vn 0.0 -1.0 0.0
vn 0.0 -1.0 0.0
vn 1.0 0.0 0.0
vn 1.0 0.0 0.0
vn 0.0 0.0 1.0
vn 0.0 0.0 1.0
vn 0.0 0.0 -1.0
vn 0.0 0.0 -1.0
vn 1.0 0.0 0.0
vn 1.0 0.0 0.0
vn 0.0 0.0 1.0
vn 0.0 0.0 1.0
vn -1.0 0.0 -0.0
vn -1.0 -0.0 0.0
vn 0.0 0.0 -1.0
vn 0.0 0.0 -1.0
vn -1.0 -0.0 0.0
vn -1.0 0.0 -0.0
vn 1.0 0.0 0.0
vn 1.0 0.0 0.0
vn 0.0 0.0 1.0
vn 0.0 0.0 1.0
vn 0.0 0.0 -1.0
vn 0.0 0.0 -1.0
vn -1.0 0.0 0.0
vn -1.0 -0.0 -0.0
f 1//1 2//1 3//1 
f 4//2 1//2 3//2 
f 4//3 5//3 1//3 
f 6//4 5//4 4//4 
f 7//5 8//5 1//5 
f 7//6 1//6 5//6 
f 9//7 10//7 11//7 
f 12//8 9//8 11//8 
f 13//9 9//9 12//9 
f 14//10 7//10 13//10 
f 14//11 8//11 7//11 
f 14//12 13//12 12//12 
f 15//13 3//13 2//13 
f 16//14 12//14 11//14 
f 17//15 3//15 15//15 
f 18//16 12//16 16//16 
f 19//17 17//17 15//17 
f 19//18 18//18 16//18 
f 20//19 17//19 19//19 
f 20//20 19//20 16//20 
f 1//21 21//21 22//21 
f 1//22 8//22 21//22 
f 2//23 23//23 15//23 
f 2//24 24//24 23//24 
f 18//25 19//25 25//25 
f 18//26 25//26 26//26 
f 25//27 15//27 23//27 
f 19//28 15//28 25//28 
f 21//29 8//29 14//29 
f 21//30 14//30 27//30 
f 12//31 28//31 27//31 
f 12//32 27//32 14//32 
f 28//33 12//33 18//33 
f 28//34 18//34 26//34 
f 24//35 2//35 1//35 
f 24//36 1//36 22//36 
f 22//37 29//37 24//37 
f 30//38 29//38 22//38 
f 30//39 22//39 31//39 
f 32//40 30//40 31//40 
f 33//41 22//41 21//41 
f 33//42 31//42 22//42 
f 34//43 35//43 36//43 
f 28//44 35//44 34//44 
f 37//45 28//45 34//45 
f 27//46 37//46 33//46 
f 27//47 33//47 21//47 
f 27//48 28//48 37//48 
f 23//49 24//49 29//49 
f 38//50 35//50 28//50 
f 39//51 23//51 29//51 
f 26//52 38//52 28//52 
f 25//53 23//53 39//53 
f 40//54 25//54 39//54 
f 40//55 38//55 26//55 
f 40//56 26//56 25//56 
f 38//57 40//57 20//57 
f 16//58 38//58 20//58 
f 16//59 11//59 35//59 
f 16//60 35//60 38//60 
f 31//61 6//61 32//61 
f 31//62 5//62 6//62 
f 5//63 33//63 7//63 
f 5//64 31//64 33//64 
f 13//65 33//65 37//65 
f 13//66 7//66 33//66 
f 9//67 13//67 37//67 
f 9//68 37//68 34//68 
f 36//69 10//69 9//69 
f 36//70 9//70 34//70 
f 11//71 36//71 35//71 
f 11//72 10//72 36//72 
f 4//73 30//73 32//73 
f 4//74 32//74 6//74 
f 4//75 3//75 29//75 
f 4//76 29//76 30//76 
f 39//77 17//77 20//77 
f 39//78 20//78 40//78 
f 29//79 17//79 39//79 
f 3//80 17//80 29//80 
