# Created by FreeCAD <http://www.freecadweb.org>
v 2.000000 40.000000 0.000000
v 2.000000 40.000000 -1.000000
v 0.000000 40.000000 -1.000000
v 0.000000 40.000000 0.000000
v 2.000000 3.000000 0.000000
v 2.000000 3.000000 -1.000000
v 2.292893 2.292893 -1.000000
v 2.328441 2.259049 0.000000
v 2.328441 2.259049 -1.000000
v 2.292893 2.292893 0.000000
v 2.365607 2.226990 0.000000
v 2.365607 2.226990 -1.000000
v 2.404301 2.196792 0.000000
v 2.404301 2.196792 -1.000000
v 2.001204 2.950932 0.000000
v 2.001204 2.950932 -1.000000
v 2.444430 2.168530 0.000000
v 2.444430 2.168530 -1.000000
v 2.004815 2.901983 0.000000
v 2.004815 2.901983 -1.000000
v 2.485897 2.142271 0.000000
v 2.485897 2.142271 -1.000000
v 2.010823 2.853270 0.000000
v 2.010823 2.853270 -1.000000
v 2.528603 2.118079 0.000000
v 2.528603 2.118079 -1.000000
v 2.572445 2.096011 0.000000
v 2.572445 2.096011 -1.000000
v 2.019215 2.804910 0.000000
v 2.019215 2.804910 -1.000000
v 2.617316 2.076120 0.000000
v 2.617316 2.076120 -1.000000
v 2.029969 2.757020 0.000000
v 2.029969 2.757020 -1.000000
v 2.663110 2.058456 0.000000
v 2.663110 2.058456 -1.000000
v 2.043060 2.709715 0.000000
v 2.043060 2.709715 -1.000000
v 2.709715 2.043060 0.000000
v 2.709715 2.043060 -1.000000
v 2.058456 2.663110 0.000000
v 2.058456 2.663110 -1.000000
v 2.076120 2.617316 0.000000
v 2.757020 2.029969 0.000000
v 2.757020 2.029969 -1.000000
v 2.076120 2.617316 -1.000000
v 2.096011 2.572445 0.000000
v 2.804910 2.019215 0.000000
v 2.804910 2.019215 -1.000000
v 2.096011 2.572445 -1.000000
v 2.853270 2.010823 0.000000
v 2.853270 2.010823 -1.000000
v 2.118079 2.528603 0.000000
v 2.118079 2.528603 -1.000000
v 2.142271 2.485897 0.000000
v 2.901983 2.004815 0.000000
v 2.901983 2.004815 -1.000000
v 2.142271 2.485897 -1.000000
v 2.950932 2.001204 0.000000
v 2.950932 2.001204 -1.000000
v 3.000000 2.000000 0.000000
v 3.000000 2.000000 -1.000000
v 2.168530 2.444430 0.000000
v 2.168530 2.444430 -1.000000
v 2.196792 2.404301 0.000000
v 2.196792 2.404301 -1.000000
v 2.226990 2.365607 0.000000
v 2.226990 2.365607 -1.000000
v 2.259049 2.328441 0.000000
v 2.259049 2.328441 -1.000000
v 40.000000 2.000000 0.000000
v 40.000000 2.000000 -1.000000
v 40.000000 0.000000 0.000000
v 40.000000 0.000000 -1.000000
v 0.000000 0.000000 0.000000
v 0.000000 0.000000 -1.000000
vn 0.000000 1.000000 0.000000
vn 0.000000 1.000000 0.000000
vn 1.000000 0.000000 -0.000000
vn 1.000000 0.000000 0.000000
vn 0.689538 0.724250 0.000000
vn 0.689538 0.724250 0.000000
vn 0.653174 0.757208 0.000000
vn 0.653174 0.757208 0.000000
vn 0.615233 0.788345 0.000000
vn 0.615233 0.788345 0.000000
vn 0.999699 0.024540 0.000000
vn 0.999699 0.024540 0.000000
vn 0.575805 0.817587 0.000000
vn 0.575805 0.817587 0.000000
vn 0.997290 0.073567 0.000000
vn 0.997290 0.073567 0.000000
vn 0.535001 0.844852 0.000000
vn 0.535001 0.844852 0.000000
vn 0.992480 0.122410 0.000000
vn 0.492897 0.870088 0.000000
vn 0.992480 0.122410 0.000000
vn 0.492897 0.870088 0.000000
vn 0.449612 0.893224 0.000000
vn 0.985278 0.170960 0.000000
vn 0.449612 0.893224 0.000000
vn 0.985278 0.170960 0.000000
vn 0.405243 0.914209 0.000000
vn 0.975702 0.219102 0.000000
vn 0.405243 0.914209 0.000000
vn 0.975702 0.219102 0.000000
vn 0.359892 0.932994 0.000000
vn 0.963776 0.266712 0.000000
vn 0.359892 0.932994 0.000000
vn 0.963776 0.266712 0.000000
vn 0.313684 0.949527 0.000000
vn 0.313684 0.949527 0.000000
vn 0.949527 0.313684 0.000000
vn 0.949527 0.313684 0.000000
vn 0.932994 0.359892 0.000000
vn 0.266712 0.963776 0.000000
vn 0.266712 0.963776 0.000000
vn 0.932994 0.359892 0.000000
vn 0.914209 0.405243 0.000000
vn 0.219102 0.975702 0.000000
vn 0.219102 0.975702 0.000000
vn 0.914209 0.405243 0.000000
vn 0.170960 0.985278 0.000000
vn 0.893224 0.449612 0.000000
vn 0.170960 0.985278 0.000000
vn 0.893224 0.449612 0.000000
vn 0.870088 0.492897 0.000000
vn 0.122410 0.992480 0.000000
vn 0.122410 0.992480 0.000000
vn 0.870088 0.492897 0.000000
vn 0.073567 0.997290 0.000000
vn 0.073567 0.997290 0.000000
vn 0.024540 0.999699 0.000000
vn 0.844852 0.535001 0.000000
vn 0.844852 0.535001 0.000000
vn 0.024540 0.999699 0.000000
vn 0.817587 0.575805 0.000000
vn 0.817587 0.575805 0.000000
vn 0.788345 0.615233 0.000000
vn 0.788345 0.615233 0.000000
vn 0.757208 0.653174 0.000000
vn 0.757208 0.653174 0.000000
vn 0.724250 0.689538 0.000000
vn 0.724250 0.689538 0.000000
vn -0.000000 1.000000 0.000000
vn 0.000000 1.000000 0.000000
vn 1.000000 0.000000 0.000000
vn 1.000000 0.000000 0.000000
vn 0.000000 -1.000000 0.000000
vn 0.000000 -1.000000 0.000000
vn -1.000000 0.000000 0.000000
vn -1.000000 -0.000000 -0.000000
vn 0.000000 -0.000000 -1.000000
vn 0.000000 0.000000 -1.000000
vn 0.000000 -0.000000 -1.000000
vn 0.000000 0.000000 -1.000000
vn 0.000000 0.000000 -1.000000
vn 0.000000 0.000000 -1.000000
vn 0.000000 0.000000 -1.000000
vn 0.000000 0.000000 -1.000000
vn 0.000000 0.000000 -1.000000
vn 0.000000 0.000000 -1.000000
vn 0.000000 0.000000 -1.000000
vn 0.000000 0.000000 -1.000000
vn 0.000000 0.000000 -1.000000
vn 0.000000 0.000000 -1.000000
vn 0.000000 0.000000 -1.000000
vn 0.000000 0.000000 -1.000000
vn 0.000000 0.000000 -1.000000
vn 0.000000 0.000000 -1.000000
vn 0.000000 0.000000 -1.000000
vn 0.000000 0.000000 -1.000000
vn 0.000000 0.000000 -1.000000
vn 0.000000 -0.000000 -1.000000
vn 0.000000 -0.000000 -1.000000
vn 0.000000 -0.000000 -1.000000
vn 0.000000 -0.000000 -1.000000
vn 0.000000 -0.000000 -1.000000
vn 0.000000 -0.000000 -1.000000
vn 0.000000 -0.000000 -1.000000
vn 0.000000 -0.000000 -1.000000
vn 0.000000 -0.000000 -1.000000
vn 0.000000 -0.000000 -1.000000
vn 0.000000 -0.000000 -1.000000
vn 0.000000 -0.000000 -1.000000
vn 0.000000 -0.000000 -1.000000
vn 0.000000 -0.000000 -1.000000
vn 0.000000 -0.000000 -1.000000
vn 0.000000 0.000000 1.000000
vn 0.000000 0.000000 1.000000
vn 0.000000 0.000000 1.000000
vn 0.000000 0.000000 1.000000
vn 0.000000 0.000000 1.000000
vn 0.000000 0.000000 1.000000
vn 0.000000 0.000000 1.000000
vn 0.000000 0.000000 1.000000
vn 0.000000 0.000000 1.000000
vn 0.000000 0.000000 1.000000
vn 0.000000 0.000000 1.000000
vn 0.000000 0.000000 1.000000
vn 0.000000 0.000000 1.000000
vn 0.000000 0.000000 1.000000
vn 0.000000 0.000000 1.000000
vn 0.000000 0.000000 1.000000
vn 0.000000 0.000000 1.000000
vn 0.000000 0.000000 1.000000
vn 0.000000 0.000000 1.000000
vn 0.000000 0.000000 1.000000
vn 0.000000 0.000000 1.000000
vn 0.000000 0.000000 1.000000
vn 0.000000 0.000000 1.000000
vn 0.000000 0.000000 1.000000
vn 0.000000 0.000000 1.000000
vn 0.000000 0.000000 1.000000
vn 0.000000 0.000000 1.000000
vn 0.000000 0.000000 1.000000
vn 0.000000 0.000000 1.000000
vn 0.000000 0.000000 1.000000
vn 0.000000 0.000000 1.000000
vn 0.000000 0.000000 1.000000
vn 0.000000 0.000000 1.000000
vn 0.000000 0.000000 1.000000
vn 0.000000 0.000000 1.000000
vn 0.000000 0.000000 1.000000
f 1//1 2//1 3//1
f 1//2 3//2 4//2
f 2//3 1//3 5//3
f 2//4 5//4 6//4
f 7//5 8//5 9//5
f 10//6 8//6 7//6
f 9//7 11//7 12//7
f 8//8 11//8 9//8
f 12//9 13//9 14//9
f 11//10 13//10 12//10
f 5//11 15//11 6//11
f 6//12 15//12 16//12
f 14//13 17//13 18//13
f 13//14 17//14 14//14
f 16//15 19//15 20//15
f 15//16 19//16 16//16
f 18//17 21//17 22//17
f 17//18 21//18 18//18
f 20//19 23//19 24//19
f 22//20 25//20 26//20
f 19//21 23//21 20//21
f 21//22 25//22 22//22
f 26//23 27//23 28//23
f 24//24 29//24 30//24
f 25//25 27//25 26//25
f 23//26 29//26 24//26
f 28//27 31//27 32//27
f 30//28 33//28 34//28
f 27//29 31//29 28//29
f 29//30 33//30 30//30
f 32//31 35//31 36//31
f 34//32 37//32 38//32
f 31//33 35//33 32//33
f 33//34 37//34 34//34
f 36//35 39//35 40//35
f 35//36 39//36 36//36
f 38//37 41//37 42//37
f 37//38 41//38 38//38
f 41//39 43//39 42//39
f 40//40 44//40 45//40
f 39//41 44//41 40//41
f 42//42 43//42 46//42
f 43//43 47//43 46//43
f 45//44 48//44 49//44
f 44//45 48//45 45//45
f 46//46 47//46 50//46
f 49//47 51//47 52//47
f 47//48 53//48 50//48
f 48//49 51//49 49//49
f 50//50 53//50 54//50
f 53//51 55//51 54//51
f 52//52 56//52 57//52
f 51//53 56//53 52//53
f 54//54 55//54 58//54
f 57//55 59//55 60//55
f 56//56 59//56 57//56
f 60//57 61//57 62//57
f 55//58 63//58 58//58
f 58//59 63//59 64//59
f 59//60 61//60 60//60
f 64//61 65//61 66//61
f 63//62 65//62 64//62
f 66//63 67//63 68//63
f 65//64 67//64 66//64
f 68//65 69//65 70//65
f 67//66 69//66 68//66
f 70//67 10//67 7//67
f 69//68 10//68 70//68
f 61//69 71//69 72//69
f 61//70 72//70 62//70
f 71//71 73//71 74//71
f 71//72 74//72 72//72
f 74//73 75//73 76//73
f 73//74 75//74 74//74
f 3//75 76//75 75//75
f 4//76 3//76 75//76
f 16//77 20//77 76//77
f 62//78 72//78 74//78
f 6//79 16//79 76//79
f 3//80 2//80 6//80
f 3//81 6//81 76//81
f 76//82 60//82 62//82
f 76//83 57//83 60//83
f 76//84 52//84 57//84
f 76//85 49//85 52//85
f 76//86 45//86 49//86
f 76//87 40//87 45//87
f 76//88 36//88 40//88
f 76//89 32//89 36//89
f 76//90 28//90 32//90
f 76//91 26//91 28//91
f 76//92 22//92 26//92
f 76//93 18//93 22//93
f 76//94 14//94 18//94
f 76//95 12//95 14//95
f 76//96 9//96 12//96
f 76//97 62//97 74//97
f 7//98 9//98 76//98
f 70//99 7//99 76//99
f 68//100 70//100 76//100
f 66//101 68//101 76//101
f 64//102 66//102 76//102
f 58//103 64//103 76//103
f 54//104 58//104 76//104
f 50//105 54//105 76//105
f 46//106 50//106 76//106
f 42//107 46//107 76//107
f 38//108 42//108 76//108
f 34//109 38//109 76//109
f 30//110 34//110 76//110
f 24//111 30//111 76//111
f 20//112 24//112 76//112
f 19//113 15//113 75//113
f 71//114 61//114 73//114
f 15//115 5//115 75//115
f 5//116 4//116 75//116
f 1//117 4//117 5//117
f 59//118 75//118 61//118
f 56//119 75//119 59//119
f 51//120 75//120 56//120
f 48//121 75//121 51//121
f 44//122 75//122 48//122
f 39//123 75//123 44//123
f 35//124 75//124 39//124
f 31//125 75//125 35//125
f 27//126 75//126 31//126
f 25//127 75//127 27//127
f 21//128 75//128 25//128
f 17//129 75//129 21//129
f 13//130 75//130 17//130
f 11//131 75//131 13//131
f 8//132 75//132 11//132
f 10//133 75//133 8//133
f 61//134 75//134 73//134
f 10//135 69//135 75//135
f 69//136 67//136 75//136
f 67//137 65//137 75//137
f 65//138 63//138 75//138
f 63//139 55//139 75//139
f 55//140 53//140 75//140
f 53//141 47//141 75//141
f 47//142 43//142 75//142
f 43//143 41//143 75//143
f 41//144 37//144 75//144
f 37//145 33//145 75//145
f 33//146 29//146 75//146
f 29//147 23//147 75//147
f 23//148 19//148 75//148
