# FreeCAD v0.19 build22284 (Git) Arch module
# http://www.freecadweb.org
mtllib 4.mtl
o Solid
usemtl color_e7e7e7
v -118.400002 1.0 8.826252
v -118.400002 0.0 8.826252
v -112.229042 0.0 14.994551
v -112.229042 1.0 14.994551
v -112.229042 1.0 19.770954
v -112.229042 0.0 19.770954
v -112.003357 0.0 19.996641
v -112.003357 1.0 19.996641
v -112.229042 0.0 20.222328
v -112.229042 1.0 20.222328
v -112.229042 1.0 24.998732
v -112.229042 0.0 24.998732
v -119.999992 1.0 15.496641
v -119.999992 1.0 0.0
v -119.999992 0.0 0.0
v -119.999992 0.0 15.496641
v -119.999992 1.0 39.993282
v -119.999992 1.0 24.496641
v -119.999992 0.0 24.496641
v -119.999992 0.0 39.993282
v -70.785316 0.0 37.78236
v -71.170387 1.0 38.167595
v -71.170387 0.0 38.167595
v -65.00209 1.0 31.996641
v -65.00209 0.0 31.996641
v -60.0 0.0 31.770952
v -60.0 1.0 31.770952
v -60.225685 1.0 31.996641
v -60.225685 0.0 31.996641
v -54.99791 1.0 31.996641
v -59.774307 1.0 31.996641
v -59.774307 0.0 31.996641
v -54.99791 0.0 31.996641
v -48.829617 0.0 38.167595
v -48.829617 1.0 38.167595
v -64.5 1.0 39.993282
v -64.5 0.0 39.993282
v 1e-06 0.0 39.993282
v -55.5 1.0 39.993282
v -55.5 0.0 39.993282
v 1e-06 1.0 39.993282
v -118.400002 1.0 24.496641
v -118.400002 0.0 24.496641
v -1.6 0.0 24.496641
v -1.6 1.0 24.496641
v 1e-06 1.0 24.496641
v 1e-06 0.0 24.496641
v -7.770954 0.0 24.998732
v -7.770954 1.0 24.998732
v -1.6 1.0 31.167023
v -1.6 0.0 31.167023
v -7.996644 0.0 19.996641
v -7.996644 1.0 19.996641
v -7.770954 1.0 20.222328
v -7.770954 0.0 20.222328
v -7.770954 1.0 19.770954
v -7.770954 0.0 14.994551
v -7.770954 1.0 14.994551
v -7.770954 0.0 19.770954
v -118.400002 1.0 15.496641
v -118.400002 0.0 15.496641
v 1e-06 1.0 15.496641
v -1.6 1.0 15.496641
v -1.6 0.0 15.496641
v 1e-06 0.0 15.496641
v 1e-06 0.0 0.0
v 1e-06 1.0 0.0
v -55.5 0.0 38.167595
v -55.5 1.0 38.167595
v -55.5 1.0 1.825688
v -55.5 0.0 0.0
v -55.5 0.0 1.825688
v -55.5 1.0 0.0
v -54.99791 0.0 7.996642
v -48.829617 1.0 1.825688
v -48.829617 0.0 1.825688
v -54.99791 1.0 7.996642
v -65.00209 0.0 7.996642
v -65.00209 1.0 7.996642
v -71.170387 0.0 1.825688
v -71.170387 1.0 1.825688
v -64.5 0.0 38.167595
v -64.5 1.0 38.167595
v -64.5 1.0 1.825688
v -64.5 0.0 1.825688
v -64.5 0.0 0.0
v -64.5 1.0 0.0
v -54.234333 0.0 30.396643
v -54.234333 1.0 30.396643
v -46.211201 1.0 38.167595
v -46.211201 0.0 38.167595
v -65.765663 0.0 30.396643
v -65.765663 1.0 30.396643
v -73.788795 1.0 38.167595
v -73.788795 0.0 38.167595
v -105.833633 1.0 38.175285
v -105.775223 0.0 38.167595
v -105.833633 0.0 38.175285
v -105.775223 1.0 38.167595
v -105.888069 1.0 38.19783
v -105.888069 0.0 38.19783
v -105.934814 1.0 38.233696
v -105.934814 0.0 38.233696
v -106.094398 0.0 38.393284
v -106.094398 1.0 38.393284
v -106.253983 0.0 38.233696
v -106.253983 1.0 38.233696
v -106.300728 0.0 38.19783
v -106.300728 1.0 38.19783
v -106.355156 0.0 38.175285
v -106.355156 1.0 38.175285
v -106.413574 0.0 38.167595
v -106.413574 1.0 38.167595
v -110.469559 0.0 25.695368
v -110.469559 1.0 25.695368
v -118.400002 1.0 33.564606
v -118.400002 0.0 33.564606
v -110.469559 0.0 14.297916
v -110.469559 1.0 14.297916
v -118.400002 1.0 6.428677
v -118.400002 0.0 6.428677
v -73.788795 1.0 1.825688
v -73.788795 0.0 1.825688
v -65.765663 0.0 9.596641
v -65.765663 1.0 9.596641
v -54.234337 1.0 9.596641
v -54.234337 0.0 9.596641
v -46.211201 0.0 1.825688
v -46.211201 1.0 1.825688
v -9.530442 1.0 14.29792
v -1.6 0.0 6.428677
v -9.530442 0.0 14.29792
v -1.6 1.0 6.428677
v -9.530442 1.0 25.695364
v -9.530442 0.0 25.695364
v -1.6 0.0 33.564606
v -1.6 1.0 33.564606
v -13.630456 1.0 38.171932
v -13.586427 0.0 38.167595
v -13.630456 0.0 38.171932
v -13.586427 1.0 38.167595
v -13.672794 1.0 38.184776
v -13.672794 0.0 38.184776
v -13.711813 1.0 38.205631
v -13.711813 0.0 38.205631
v -13.746014 1.0 38.233696
v -13.746014 0.0 38.233696
v -13.905598 1.0 38.393284
v -13.905598 0.0 38.393284
v -14.065186 0.0 38.233696
v -14.065186 1.0 38.233696
v -14.099384 0.0 38.205631
v -14.099384 1.0 38.205631
v -14.138403 0.0 38.184776
v -14.138403 1.0 38.184776
v -14.180741 0.0 38.171932
v -14.180741 1.0 38.171932
v -1.6 1.0 1.825688
v -1.6 0.0 1.825688
v -1.6 1.0 38.167595
v -1.6 0.0 38.167595
v -1.6 0.0 8.82626
v -1.6 1.0 8.82626
v -118.400002 0.0 38.167595
v -118.400002 1.0 38.167595
v -14.22477 1.0 38.167595
v -14.22477 0.0 38.167595
v -118.400002 0.0 1.825688
v -118.400002 1.0 1.825688
v -118.400002 1.0 31.16703
v -118.400002 0.0 31.16703
vn -0.706954300403595 0.0 0.7072592973709106
vn -0.706954300403595 0.0 0.7072592973709106
vn -0.707109808921814 0.0 0.7071037888526917
vn -0.707109808921814 0.0 0.7071037888526917
vn -0.707109808921814 -0.0 -0.7071037888526917
vn -0.707109808921814 -0.0 -0.7071037888526917
vn -1.0 -0.0 0.0
vn -1.0 0.0 -0.0
vn -1.0 0.0 -0.0
vn -1.0 -0.0 0.0
vn -1.0 0.0 -0.0
vn -1.0 -0.0 0.0
vn -1.0 0.0 -0.0
vn -1.0 -0.0 0.0
vn 0.7072573304176331 0.0 0.7069562077522278
vn 0.7072589993476868 1.3116184618411353e-06 0.7069544792175293
vn 0.7072591781616211 -0.0 0.7069544196128845
vn 0.707112729549408 -0.0 0.7071007490158081
vn 0.707112729549408 0.0 0.7071007490158081
vn 0.0 0.0 1.0
vn 0.0 0.0 1.0
vn 0.0 0.0 1.0
vn 0.0 0.0 1.0
vn -0.7072592377662659 0.0 0.706954300403595
vn -0.7072592377662659 0.0 0.706954300403595
vn 0.0 0.0 1.0
vn 0.0 0.0 1.0
vn 0.0 0.0 1.0
vn 0.0 0.0 1.0
vn 0.0 0.0 -1.0
vn 0.0 0.0 -1.0
vn 0.0 0.0 -1.0
vn 0.0 0.0 -1.0
vn 0.7069541215896606 0.0 -0.7072593569755554
vn 0.7069541215896606 0.0 -0.7072593569755554
vn 0.7071022987365723 0.0 -0.7071112990379333
vn 0.7071022987365723 0.0 -0.7071112990379333
vn 1.0 0.0 0.0
vn 1.0 0.0 0.0
vn 1.0 0.0 0.0
vn 1.0 0.0 0.0
vn 0.0 0.0 1.0
vn 0.0 0.0 1.0
vn 0.0 0.0 1.0
vn 0.0 0.0 1.0
vn 1.0 0.0 0.0
vn 1.0 0.0 0.0
vn 1.0 0.0 0.0
vn 1.0 0.0 0.0
vn -1.0 -0.0 0.0
vn -1.0 0.0 -0.0
vn -1.0 -0.0 0.0
vn -1.0 0.0 -0.0
vn -0.7072592973709106 0.0 -0.706954300403595
vn -0.7072592973709106 -0.0 -0.706954300403595
vn 0.0 0.0 -1.0
vn 0.0 0.0 -1.0
vn 0.7072590589523315 0.0 -0.7069544792175293
vn 0.7072590589523315 0.0 -0.7069544792175293
vn 1.0 0.0 0.0
vn 1.0 0.0 0.0
vn 1.0 0.0 0.0
vn 1.0 0.0 0.0
vn -9.767587521428025e-19 0.0 -1.0
vn -9.767587521428025e-19 0.0 -1.0
vn 0.0 0.0 -1.0
vn 0.0 0.0 -1.0
vn 0.6957278847694397 0.0 -0.7183054089546204
vn 0.6957278847694397 0.0 -0.7183054089546204
vn 0.0 0.0 -1.0
vn 0.0 0.0 -1.0
vn -0.6957278847694397 -0.0 -0.7183054089546204
vn -0.6957278847694397 0.0 -0.7183054089546204
vn -0.13053490221500397 -0.0 -0.9914436936378479
vn -0.13053490221500397 0.0 -0.9914436936378479
vn -0.38263770937919617 -0.0 -0.923898458480835
vn -0.38263770937919617 0.0 -0.923898458480835
vn -0.6087278127670288 -0.0 -0.7933791875839233
vn -0.6087278127670288 0.0 -0.7933791875839233
vn -0.7071152925491333 -0.0 -0.7070983648300171
vn -0.7071152925491333 -0.0 -0.7070983648300171
vn 0.7071152925491333 0.0 -0.7070983648300171
vn 0.7071152925491333 0.0 -0.7070983648300171
vn 0.6087278127670288 0.0 -0.7933791875839233
vn 0.6087278127670288 0.0 -0.7933791875839233
vn 0.38268348574638367 0.0 -0.9238795042037964
vn 0.38268348574638367 0.0 -0.9238795042037964
vn 0.13051815330982208 0.0 -0.9914459586143494
vn 0.13051815330982208 0.0 -0.9914459586143494
vn 0.7043623328208923 -0.0 0.7098406553268433
vn 0.7043623328208923 0.0 0.7098406553268433
vn 1.0 0.0 0.0
vn 1.0 0.0 0.0
vn 0.7043623924255371 0.0 -0.7098405957221985
vn 0.7043623924255371 0.0 -0.7098405957221985
vn -0.6957279443740845 0.0 0.7183054089546204
vn -0.6957279443740845 0.0 0.7183054089546204
vn 0.0 0.0 1.0
vn 0.0 0.0 1.0
vn 0.6957277655601501 -0.0 0.7183055877685547
vn 0.6957277655601501 0.0 0.7183055877685547
vn -0.7043625712394714 -0.0 -0.7098403573036194
vn -0.7043625712394714 0.0 -0.7098403573036194
vn -1.0 -0.0 0.0
vn -1.0 0.0 -0.0
vn -0.7043624520301819 0.0 0.7098404169082642
vn -0.7043624520301819 0.0 0.7098404169082642
vn -0.09803526848554611 -0.0 -0.995182991027832
vn -0.09803526848554611 0.0 -0.995182991027832
vn -0.29030290246009827 -0.0 -0.9569347500801086
vn -0.29030290246009827 0.0 -0.9569347500801086
vn -0.47138017416000366 -0.0 -0.8819301128387451
vn -0.47138017416000366 0.0 -0.8819301128387451
vn -0.6343523263931274 -0.0 -0.7730441093444824
vn -0.6343523263931274 0.0 -0.7730441093444824
vn -0.7071152925491333 0.0 -0.7070983648300171
vn -0.7071152925491333 -0.0 -0.7070983648300171
vn 0.7071067690849304 0.0 -0.7071067690849304
vn 0.7071067690849304 0.0 -0.7071067690849304
vn 0.6343734264373779 0.0 -0.773026704788208
vn 0.6343734264373779 0.0 -0.773026704788208
vn 0.47138017416000366 0.0 -0.8819301128387451
vn 0.47138017416000366 0.0 -0.8819301128387451
vn 0.29030290246009827 0.0 -0.9569347500801086
vn 0.29030290246009827 0.0 -0.9569347500801086
vn -1.0 0.0 -0.0
vn -1.0 -0.0 0.0
vn -1.0 0.0 -0.0
vn -1.0 -0.0 0.0
vn -1.0 -0.0 0.0
vn -1.0 0.0 -0.0
vn -1.0 -0.0 0.0
vn -1.0 0.0 -0.0
vn 0.0 0.0 -1.0
vn 0.0 0.0 -1.0
vn 0.0 0.0 -1.0
vn 0.0 0.0 -1.0
vn 0.0 0.0 -1.0
vn 0.0 0.0 -1.0
vn 0.0 0.0 -1.0
vn 0.0 0.0 -1.0
vn 0.0 0.0 -1.0
vn 0.0 0.0 -1.0
vn 0.0 0.0 -1.0
vn 0.0 0.0 -1.0
vn 1.0 0.0 0.0
vn 1.0 0.0 0.0
vn 1.0 0.0 0.0
vn 1.0 0.0 0.0
vn 1.0 0.0 0.0
vn 1.0 0.0 0.0
vn 1.0 0.0 0.0
vn 1.0 0.0 0.0
vn 0.0 0.0 1.0
vn 0.0 0.0 1.0
vn 0.0 0.0 1.0
vn 0.0 0.0 1.0
vn 0.0 0.0 1.0
vn 0.0 0.0 1.0
vn 0.0 0.0 1.0
vn 0.0 0.0 1.0
vn 0.0 1.0 0.0
vn 0.0 1.0 -0.0
vn 0.0 1.0 0.0
vn 0.0 1.0 0.0
vn 0.0 1.0 0.0
vn 0.0 1.0 0.0
vn 0.0 1.0 -0.0
vn 0.0 1.0 0.0
vn 0.0 1.0 0.0
vn 0.0 1.0 -0.0
vn 0.0 1.0 0.0
vn 0.0 1.0 0.0
vn 0.0 1.0 0.0
vn 0.0 1.0 -0.0
vn 0.0 1.0 0.0
vn 0.0 1.0 0.0
vn 0.0 1.0 0.0
vn 0.0 1.0 0.0
vn 0.0 1.0 0.0
vn 0.0 1.0 0.0
vn 0.0 1.0 0.0
vn 0.0 1.0 -0.0
vn 0.0 1.0 0.0
vn 0.0 1.0 0.0
vn 0.0 1.0 0.0
vn 0.0 1.0 -0.0
vn 0.0 1.0 -0.0
vn 0.0 1.0 0.0
vn 0.0 1.0 0.0
vn 0.0 1.0 0.0
vn 0.0 1.0 0.0
vn 0.0 1.0 -0.0
vn 0.0 1.0 0.0
vn 0.0 1.0 0.0
vn 0.0 1.0 -0.0
vn 0.0 1.0 0.0
vn 0.0 1.0 0.0
vn 0.0 1.0 0.0
vn 0.0 1.0 0.0
vn 0.0 1.0 -0.0
vn 0.0 1.0 0.0
vn 0.0 1.0 -0.0
vn 0.0 1.0 0.0
vn 0.0 1.0 -0.0
vn 0.0 1.0 0.0
vn 0.0 1.0 0.0
vn 0.0 1.0 -0.0
vn 0.0 1.0 0.0
vn 0.0 1.0 -0.0
vn 0.0 1.0 0.0
vn 0.0 1.0 0.0
vn 0.0 1.0 0.0
vn 0.0 1.0 0.0
vn 0.0 1.0 -0.0
vn 0.0 1.0 -0.0
vn 0.0 1.0 -0.0
vn 0.0 1.0 -0.0
vn 0.0 1.0 0.0
vn 0.0 1.0 0.0
vn 0.0 1.0 0.0
vn 0.0 1.0 0.0
vn 0.0 1.0 0.0
vn 0.0 1.0 0.0
vn 0.0 1.0 0.0
vn 0.0 1.0 0.0
vn 0.0 1.0 0.0
vn 0.0 1.0 0.0
vn 0.0 1.0 0.0
vn 0.0 1.0 0.0
vn 0.0 1.0 -0.0
vn 0.0 1.0 0.0
vn 0.0 1.0 0.0
vn 0.0 1.0 -0.0
vn 0.0 1.0 0.0
vn 0.0 1.0 0.0
vn 0.0 1.0 0.0
vn 0.0 1.0 0.0
vn 0.0 1.0 0.0
vn 0.0 1.0 0.0
vn 0.0 1.0 0.0
vn 0.0 1.0 0.0
vn 0.0 1.0 -0.0
vn 0.0 1.0 0.0
vn 0.0 1.0 0.0
vn 0.0 1.0 0.0
vn 0.09803736209869385 0.0 -0.9951826930046082
vn 0.09803736209869385 0.0 -0.9951826930046082
vn 0.7069541215896606 -0.0 0.7072593569755554
vn 0.7069541215896606 0.0 0.7072593569755554
vn 0.7071022987365723 -0.0 0.7071112990379333
vn 0.7071022987365723 0.0 0.7071112990379333
vn -0.7071007490158081 0.0 0.707112729549408
vn -0.7071007490158081 0.0 0.707112729549408
vn -0.706954300403595 0.0 -0.7072592973709106
vn -0.706954300403595 -0.0 -0.7072592973709106
vn 0.0 -1.0 0.0
vn 0.0 -1.0 0.0
vn 0.0 -1.0 0.0
vn 0.0 -1.0 0.0
vn 0.0 -1.0 0.0
vn 0.0 -1.0 0.0
vn 0.0 -1.0 0.0
vn -0.0 -1.0 0.0
vn 0.0 -1.0 0.0
vn 0.0 -1.0 0.0
vn 0.0 -1.0 0.0
vn -0.0 -1.0 0.0
vn 0.0 -1.0 0.0
vn 0.0 -1.0 0.0
vn -0.0 -1.0 0.0
vn 0.0 -1.0 0.0
vn 0.0 -1.0 0.0
vn -0.0 -1.0 0.0
vn 0.0 -1.0 0.0
vn -0.0 -1.0 0.0
vn 0.0 -1.0 0.0
vn -0.0 -1.0 0.0
vn 0.0 -1.0 0.0
vn 0.0 -1.0 0.0
vn 0.0 -1.0 0.0
vn 0.0 -1.0 0.0
vn -0.0 -1.0 0.0
vn 0.0 -1.0 0.0
vn 0.0 -1.0 0.0
vn 0.0 -1.0 0.0
vn 0.0 -1.0 0.0
vn -0.0 -1.0 0.0
vn 0.0 -1.0 0.0
vn 0.0 -1.0 0.0
vn -0.0 -1.0 0.0
vn -0.0 -1.0 0.0
vn 0.0 -1.0 0.0
vn 0.0 -1.0 0.0
vn 0.0 -1.0 0.0
vn 0.0 -1.0 0.0
vn 0.0 -1.0 0.0
vn 0.0 -1.0 0.0
vn 0.0 -1.0 0.0
vn 0.0 -1.0 0.0
vn -0.0 -1.0 0.0
vn 0.0 -1.0 0.0
vn -0.0 -1.0 0.0
vn 0.0 -1.0 0.0
vn 0.0 -1.0 0.0
vn 0.0 -1.0 0.0
vn 0.0 -1.0 0.0
vn 0.0 -1.0 0.0
vn 0.0 -1.0 0.0
vn 0.0 -1.0 0.0
vn 0.0 -1.0 0.0
vn 0.0 -1.0 0.0
vn 0.0 -1.0 0.0
vn 0.0 -1.0 0.0
vn 0.0 -1.0 0.0
vn 0.0 -1.0 0.0
vn 0.0 -1.0 0.0
vn 0.0 -1.0 0.0
vn 0.0 -1.0 0.0
vn 0.0 -1.0 0.0
vn -0.0 -1.0 0.0
vn 0.0 -1.0 0.0
vn -0.0 -1.0 0.0
vn 0.0 -1.0 0.0
vn 0.0 -1.0 0.0
vn 0.0 -1.0 0.0
vn 0.0 -1.0 0.0
vn 0.0 -1.0 0.0
vn 0.0 -1.0 0.0
vn 0.0 -1.0 0.0
vn -0.0 -1.0 0.0
vn 0.0 -1.0 0.0
vn 0.0 -1.0 0.0
vn 0.0 -1.0 0.0
vn 0.0 -1.0 0.0
vn 0.0 -1.0 0.0
vn 0.0 -1.0 0.0
vn 0.0 -1.0 0.0
vn -0.0 -1.0 0.0
vn 0.0 -1.0 0.0
vn 0.0 -1.0 0.0
vn 0.0 -1.0 0.0
f 1//1 2//1 3//1 
f 1//2 3//2 4//2 
f 5//3 6//3 7//3 
f 5//4 7//4 8//4 
f 8//5 7//5 9//5 
f 10//6 8//6 9//6 
f 5//7 3//7 6//7 
f 5//8 4//8 3//8 
f 11//9 10//9 9//9 
f 11//10 9//10 12//10 
f 13//11 14//11 15//11 
f 13//12 15//12 16//12 
f 17//13 18//13 19//13 
f 17//14 19//14 20//14 
f 21//15 22//15 23//15 
f 24//16 22//16 21//16 
f 25//17 24//17 21//17 
f 26//18 27//18 28//18 
f 26//19 28//19 29//19 
f 28//20 25//20 29//20 
f 28//21 24//21 25//21 
f 30//22 31//22 32//22 
f 30//23 32//23 33//23 
f 30//24 33//24 34//24 
f 30//25 34//25 35//25 
f 36//26 20//26 37//26 
f 36//27 17//27 20//27 
f 38//28 39//28 40//28 
f 41//29 39//29 38//29 
f 19//30 18//30 42//30 
f 19//31 42//31 43//31 
f 44//32 45//32 46//32 
f 44//33 46//33 47//33 
f 48//34 49//34 50//34 
f 48//35 50//35 51//35 
f 52//36 53//36 54//36 
f 52//37 54//37 55//37 
f 49//38 48//38 55//38 
f 49//39 55//39 54//39 
f 56//40 57//40 58//40 
f 56//41 59//41 57//41 
f 60//42 16//42 61//42 
f 60//43 13//43 16//43 
f 62//44 63//44 64//44 
f 62//45 64//45 65//45 
f 41//46 47//46 46//46 
f 41//47 38//47 47//47 
f 62//48 66//48 67//48 
f 62//49 65//49 66//49 
f 39//50 68//50 40//50 
f 39//51 69//51 68//51 
f 70//52 71//52 72//52 
f 70//53 73//53 71//53 
f 74//54 75//54 76//54 
f 77//55 75//55 74//55 
f 78//56 79//56 77//56 
f 78//57 77//57 74//57 
f 80//58 81//58 79//58 
f 80//59 79//59 78//59 
f 36//60 37//60 82//60 
f 36//61 82//61 83//61 
f 84//62 85//62 86//62 
f 84//63 86//63 87//63 
f 73//64 67//64 66//64 
f 71//65 73//65 66//65 
f 15//66 14//66 87//66 
f 15//67 87//67 86//67 
f 88//68 89//68 90//68 
f 88//69 90//69 91//69 
f 92//70 93//70 89//70 
f 92//71 89//71 88//71 
f 94//72 92//72 95//72 
f 94//73 93//73 92//73 
f 96//74 97//74 98//74 
f 96//75 99//75 97//75 
f 100//76 98//76 101//76 
f 100//77 96//77 98//77 
f 102//78 101//78 103//78 
f 102//79 100//79 101//79 
f 102//80 103//80 104//80 
f 105//81 102//81 104//81 
f 106//82 107//82 105//82 
f 106//83 105//83 104//83 
f 108//84 109//84 107//84 
f 108//85 107//85 106//85 
f 110//86 111//86 109//86 
f 110//87 109//87 108//87 
f 112//88 113//88 111//88 
f 112//89 111//89 110//89 
f 114//90 115//90 116//90 
f 114//91 116//91 117//91 
f 115//92 114//92 118//92 
f 115//93 118//93 119//93 
f 120//94 119//94 118//94 
f 121//95 120//95 118//95 
f 122//96 123//96 124//96 
f 122//97 124//97 125//97 
f 126//98 125//98 124//98 
f 126//99 124//99 127//99 
f 128//100 129//100 126//100 
f 128//101 126//101 127//101 
f 130//102 131//102 132//102 
f 130//103 133//103 131//103 
f 134//104 132//104 135//104 
f 134//105 130//105 132//105 
f 134//106 135//106 136//106 
f 134//107 136//107 137//107 
f 138//108 139//108 140//108 
f 138//109 141//109 139//109 
f 142//110 140//110 143//110 
f 142//111 138//111 140//111 
f 144//112 143//112 145//112 
f 144//113 142//113 143//113 
f 146//114 145//114 147//114 
f 146//115 144//115 145//115 
f 148//116 146//116 147//116 
f 148//117 147//117 149//117 
f 150//118 151//118 148//118 
f 150//119 148//119 149//119 
f 152//120 153//120 151//120 
f 152//121 151//121 150//121 
f 154//122 155//122 153//122 
f 154//123 153//123 152//123 
f 156//124 157//124 155//124 
f 156//125 155//125 154//125 
f 133//126 158//126 159//126 
f 133//127 159//127 131//127 
f 160//128 137//128 136//128 
f 160//129 136//129 161//129 
f 63//130 162//130 64//130 
f 63//131 163//131 162//131 
f 50//132 44//132 51//132 
f 50//133 45//133 44//133 
f 97//134 99//134 94//134 
f 97//135 94//135 95//135 
f 164//136 165//136 113//136 
f 164//137 113//137 112//137 
f 91//138 90//138 166//138 
f 91//139 166//139 167//139 
f 139//140 141//140 160//140 
f 139//141 160//141 161//141 
f 68//142 69//142 35//142 
f 68//143 35//143 34//143 
f 23//144 22//144 83//144 
f 23//145 83//145 82//145 
f 165//146 117//146 116//146 
f 165//147 164//147 117//147 
f 120//148 168//148 169//148 
f 120//149 121//149 168//149 
f 170//150 171//150 43//150 
f 170//151 43//151 42//151 
f 61//152 2//152 1//152 
f 60//153 61//153 1//153 
f 122//154 169//154 168//154 
f 122//155 168//155 123//155 
f 158//156 129//156 128//156 
f 158//157 128//157 159//157 
f 76//158 70//158 72//158 
f 75//159 70//159 76//159 
f 84//160 80//160 85//160 
f 84//161 81//161 80//161 
f 141//162 146//162 148//162 
f 93//163 22//163 24//163 
f 75//164 73//164 70//164 
f 93//165 94//165 22//165 
f 75//166 77//166 126//166 
f 129//167 75//167 126//167 
f 116//168 17//168 165//168 
f 129//169 73//169 75//169 
f 41//170 141//170 148//170 
f 170//171 17//171 116//171 
f 28//172 93//172 24//172 
f 41//173 148//173 39//173 
f 113//174 165//174 17//174 
f 160//175 141//175 41//175 
f 27//176 93//176 28//176 
f 109//177 111//177 113//177 
f 35//178 69//178 39//178 
f 137//179 160//179 41//179 
f 18//180 17//180 170//180 
f 89//181 27//181 31//181 
f 89//182 31//182 30//182 
f 89//183 30//183 35//183 
f 105//184 113//184 17//184 
f 107//185 109//185 113//185 
f 50//186 49//186 134//186 
f 50//187 134//187 137//187 
f 107//188 113//188 105//188 
f 50//189 137//189 41//189 
f 90//190 89//190 35//190 
f 90//191 35//191 39//191 
f 122//192 14//192 169//192 
f 54//193 134//193 49//193 
f 54//194 53//194 134//194 
f 96//195 100//195 102//195 
f 81//196 122//196 125//196 
f 46//197 45//197 50//197 
f 81//198 125//198 79//198 
f 99//199 96//199 102//199 
f 99//200 102//200 105//200 
f 46//201 50//201 41//201 
f 130//202 53//202 56//202 
f 87//203 81//203 84//203 
f 130//204 134//204 53//204 
f 42//205 18//205 170//205 
f 87//206 122//206 81//206 
f 115//207 11//207 170//207 
f 58//208 130//208 56//208 
f 115//209 170//209 116//209 
f 77//210 125//210 126//210 
f 77//211 79//211 125//211 
f 10//212 11//212 115//212 
f 163//213 63//213 62//213 
f 163//214 130//214 58//214 
f 8//215 10//215 115//215 
f 133//216 130//216 163//216 
f 1//217 13//217 60//217 
f 67//218 163//218 62//218 
f 67//219 133//219 163//219 
f 67//220 129//220 158//220 
f 67//221 158//221 133//221 
f 155//222 157//222 166//222 
f 67//223 73//223 129//223 
f 87//224 14//224 122//224 
f 89//225 93//225 27//225 
f 119//226 1//226 4//226 
f 119//227 4//227 5//227 
f 119//228 5//228 8//228 
f 148//229 90//229 39//229 
f 148//230 166//230 90//230 
f 119//231 8//231 115//231 
f 119//232 120//232 1//232 
f 151//233 155//233 166//233 
f 151//234 166//234 148//234 
f 151//235 153//235 155//235 
f 14//236 13//236 1//236 
f 14//237 1//237 120//237 
f 14//238 120//238 169//238 
f 94//239 99//239 105//239 
f 36//240 105//240 17//240 
f 36//241 94//241 105//241 
f 36//242 22//242 94//242 
f 83//243 22//243 36//243 
f 141//244 138//244 142//244 
f 141//245 142//245 144//245 
f 141//246 144//246 146//246 
f 167//247 166//247 157//247 
f 167//248 157//248 156//248 
f 162//249 163//249 58//249 
f 162//250 58//250 57//250 
f 59//251 56//251 53//251 
f 59//252 53//252 52//252 
f 27//253 26//253 32//253 
f 27//254 32//254 31//254 
f 171//255 11//255 12//255 
f 170//256 11//256 171//256 
f 139//257 149//257 147//257 
f 117//258 164//258 20//258 
f 139//259 147//259 145//259 
f 139//260 145//260 143//260 
f 92//261 25//261 21//261 
f 139//262 143//262 140//262 
f 171//263 117//263 20//263 
f 76//264 72//264 71//264 
f 92//265 21//265 95//265 
f 112//266 20//266 164//266 
f 76//267 127//267 74//267 
f 128//268 76//268 71//268 
f 128//269 127//269 76//269 
f 108//270 112//270 110//270 
f 29//271 25//271 92//271 
f 38//272 149//272 139//272 
f 161//273 38//273 139//273 
f 26//274 29//274 92//274 
f 19//275 171//275 20//275 
f 104//276 20//276 112//276 
f 34//277 40//277 68//277 
f 106//278 104//278 112//278 
f 136//279 38//279 161//279 
f 106//280 112//280 108//280 
f 51//281 135//281 48//281 
f 51//282 38//282 136//282 
f 51//283 136//283 135//283 
f 88//284 34//284 33//284 
f 88//285 33//285 32//285 
f 88//286 32//286 26//286 
f 55//287 48//287 135//287 
f 55//288 135//288 52//288 
f 98//289 103//289 101//289 
f 91//290 40//290 34//290 
f 91//291 34//291 88//291 
f 123//292 168//292 15//292 
f 97//293 103//293 98//293 
f 97//294 104//294 103//294 
f 47//295 51//295 44//295 
f 43//296 171//296 19//296 
f 47//297 38//297 51//297 
f 132//298 59//298 52//298 
f 132//299 52//299 135//299 
f 80//300 124//300 123//300 
f 57//301 59//301 132//301 
f 80//302 78//302 124//302 
f 114//303 171//303 12//303 
f 114//304 117//304 171//304 
f 86//305 85//305 80//305 
f 86//306 80//306 123//306 
f 9//307 114//307 12//307 
f 162//308 65//308 64//308 
f 162//309 57//309 132//309 
f 74//310 127//310 124//310 
f 74//311 124//311 78//311 
f 7//312 114//312 9//312 
f 131//313 162//313 132//313 
f 2//314 61//314 16//314 
f 66//315 162//315 131//315 
f 66//316 65//316 162//316 
f 66//317 131//317 159//317 
f 66//318 159//318 128//318 
f 66//319 128//319 71//319 
f 15//320 86//320 123//320 
f 38//321 40//321 149//321 
f 23//322 82//322 37//322 
f 37//323 20//323 104//323 
f 37//324 104//324 95//324 
f 92//325 88//325 26//325 
f 154//326 167//326 156//326 
f 118//327 114//327 7//327 
f 118//328 2//328 121//328 
f 118//329 7//329 6//329 
f 118//330 6//330 3//330 
f 118//331 3//331 2//331 
f 150//332 167//332 154//332 
f 15//333 2//333 16//333 
f 15//334 121//334 2//334 
f 150//335 154//335 152//335 
f 15//336 168//336 121//336 
f 149//337 167//337 150//337 
f 149//338 91//338 167//338 
f 149//339 40//339 91//339 
f 95//340 104//340 97//340 
f 21//341 23//341 95//341 
f 37//342 95//342 23//342 
