# FreeCAD v0.19 build22284 (Git) Arch module
# http://www.freecadweb.org
mtllib 7.mtl
o Solid
usemtl color_e7e7e7
v -70.400002 1.0 45.687008
v -70.400002 0.0 45.687008
v -70.400002 0.0 34.312992
v -70.400002 1.0 34.312992
v -78.400002 1.0 53.687004
v -78.400002 0.0 53.687004
v -34.312996 0.0 9.599998
v -40.0 0.0 8.299999
v -39.700001 0.0 7.999998
v -45.687008 0.0 9.599998
v -2e-06 0.0 80.0
v -35.5 0.0 80.0
v -26.312996 0.0 78.400002
v -9.6 0.0 34.312992
v -7.999999 0.0 39.700001
v -8.300001 0.0 40.0
v -1.600003 0.0 78.400002
v -80.0 0.0 0.0
v -78.400002 0.0 26.312994
v -80.0 0.0 35.5
v -53.687008 0.0 78.400002
v -80.0 0.0 80.0
v -78.400002 0.0 78.400002
v -9.6 0.0 45.687008
v -78.400002 0.0 1.600001
v -2e-06 0.0 79.700005
v -34.975739 0.0 7.999998
v -7.999999 0.0 34.975735
v -1.600003 0.0 65.024269
v -44.5 0.0 80.0
v -51.424263 0.0 78.400002
v -80.0 0.0 44.5
v -78.400002 0.0 51.424263
v -1.512134 0.0 64.812134
v -1.589781 0.0 64.946625
v -1.559811 0.0 64.874268
v -44.5 0.0 78.400002
v -78.400002 0.0 44.5
v -1.300001 0.0 64.600006
v -1.600003 0.0 28.575737
v -2e-06 0.0 35.5
v -1.600003 0.0 35.5
v -72.0 0.0 45.024265
v -28.575739 0.0 1.600001
v -35.5 0.0 1.600001
v -35.5 0.0 0.0
v -45.687008 0.0 70.400002
v -45.024265 0.0 72.000008
v -1.600003 0.0 26.312994
v -26.312996 0.0 1.600001
v -1.594236 0.0 64.234268
v -1.512134 0.0 64.387871
v -1.549443 0.0 64.342407
v -2e-06 0.0 -0.0
v -1.577167 0.0 64.290543
v -1.600003 0.0 1.600001
v -2e-06 0.0 44.5
v -1.600003 0.0 53.687004
v -1.600003 0.0 64.175743
v -40.299999 0.0 72.000008
v -53.687008 0.0 1.600001
v -72.0 0.0 40.299999
v -1.600003 0.0 51.424263
v -40.0 0.0 71.700005
v -51.424263 0.0 1.600001
v -7.999999 0.0 45.024265
v -71.700005 0.0 40.0
v -45.024265 0.0 7.999998
v -28.575739 0.0 78.400002
v -35.5 0.0 78.400002
v -7.999999 0.0 40.299999
v -78.400002 0.0 28.575737
v -78.400002 0.0 35.5
v -40.299999 0.0 7.999998
v -34.312996 0.0 70.400002
v -34.975739 0.0 72.000008
v -39.700001 0.0 72.000008
v -72.0 0.0 39.700001
v -72.0 0.0 34.975735
v -1.600003 0.0 44.5
v -44.5 0.0 0.0
v -44.5 0.0 1.600001
v -72.0 1.0 45.024265
v -72.0 1.0 40.299999
v -72.0 1.0 39.700001
v -72.0 1.0 34.975735
v -71.700005 1.0 40.0
v -78.400002 1.0 28.575737
v -78.400002 1.0 26.312994
v -78.400002 1.0 1.600001
v -78.400002 1.0 35.5
v -78.400002 1.0 78.400002
v -78.400002 1.0 51.424263
v -78.400002 1.0 44.5
v -2e-06 1.0 44.5
v -1.600003 1.0 51.424263
v -1.600003 1.0 53.687004
v -44.5 1.0 0.0
v -51.424263 1.0 1.600001
v -44.5 1.0 1.600001
v -53.687008 1.0 1.600001
v -2e-06 1.0 80.0
v -26.312996 1.0 78.400002
v -35.5 1.0 80.0
v -1.600003 1.0 78.400002
v -34.312996 1.0 9.599998
v -39.700001 1.0 7.999998
v -40.0 1.0 8.299999
v -80.0 1.0 0.0
v -80.0 1.0 35.5
v -53.687008 1.0 78.400002
v -80.0 1.0 80.0
v -45.687008 1.0 9.599998
v -9.6 1.0 34.312992
v -8.300001 1.0 40.0
v -7.999999 1.0 39.700001
v -2e-06 1.0 79.700005
v -9.6 1.0 45.687008
v -1.600003 1.0 65.024269
v -34.975739 1.0 7.999998
v -44.5 1.0 80.0
v -51.424263 1.0 78.400002
v -7.999999 1.0 34.975735
v -80.0 1.0 44.5
v -44.5 1.0 78.400002
v -1.512134 1.0 64.812134
v -1.559811 1.0 64.874268
v -1.589781 1.0 64.946625
v -1.300001 1.0 64.600006
v -1.600003 1.0 28.575737
v -1.600003 1.0 35.5
v -2e-06 1.0 35.5
v -45.687008 1.0 70.400002
v -45.024265 1.0 72.000008
v -28.575739 1.0 1.600001
v -35.5 1.0 0.0
v -35.5 1.0 1.600001
v -1.600003 1.0 26.312994
v -26.312996 1.0 1.600001
v -1.594236 1.0 64.234268
v -1.577167 1.0 64.290543
v -1.549443 1.0 64.342407
v -1.512134 1.0 64.387871
v -2e-06 1.0 -0.0
v -40.299999 1.0 72.000008
v -1.600003 1.0 1.600001
v -1.600003 1.0 64.175743
v -40.0 1.0 71.700005
v -7.999999 1.0 45.024265
v -45.024265 1.0 7.999998
v -28.575739 1.0 78.400002
v -35.5 1.0 78.400002
v -7.999999 1.0 40.299999
v -40.299999 1.0 7.999998
v -34.312996 1.0 70.400002
v -39.700001 1.0 72.000008
v -34.975739 1.0 72.000008
v -1.600003 1.0 44.5
vn 1.0 0.0 0.0
vn 1.0 0.0 0.0
vn 0.7071066498756409 -0.0 0.7071069478988647
vn 0.7071066498756409 0.0 0.7071069478988647
vn 0.0 -1.0 0.0
vn -0.0 -1.0 0.0
vn -0.0 -1.0 0.0
vn 0.0 -1.0 0.0
vn 0.0 -1.0 0.0
vn 0.0 -1.0 0.0
vn 0.0 -1.0 0.0
vn 0.0 -1.0 0.0
vn 0.0 -1.0 0.0
vn -0.0 -1.0 0.0
vn 0.0 -1.0 0.0
vn 0.0 -1.0 0.0
vn -0.0 -1.0 0.0
vn 0.0 -1.0 0.0
vn -0.0 -1.0 0.0
vn 0.0 -1.0 0.0
vn 0.0 -1.0 0.0
vn 0.0 -1.0 0.0
vn 0.0 -1.0 0.0
vn 0.0 -1.0 0.0
vn 0.0 -1.0 0.0
vn 0.0 -1.0 0.0
vn 0.0 -1.0 0.0
vn 0.0 -1.0 0.0
vn 0.0 -1.0 0.0
vn 0.0 -1.0 0.0
vn -0.0 -1.0 0.0
vn 0.0 -1.0 0.0
vn -0.0 -1.0 0.0
vn 0.0 -1.0 0.0
vn 0.0 -1.0 0.0
vn 0.0 -1.0 0.0
vn 0.0 -1.0 0.0
vn 0.0 -1.0 0.0
vn 0.0 -1.0 0.0
vn -0.0 -1.0 0.0
vn 0.0 -1.0 0.0
vn 0.0 -1.0 0.0
vn 0.0 -1.0 0.0
vn 0.0 -1.0 0.0
vn 0.0 -1.0 0.0
vn 0.0 -1.0 0.0
vn 0.0 -1.0 0.0
vn 0.0 -1.0 0.0
vn 0.0 -1.0 0.0
vn 0.0 -1.0 0.0
vn -0.0 -1.0 0.0
vn -0.0 -1.0 0.0
vn 0.0 -1.0 0.0
vn 0.0 -1.0 0.0
vn -0.0 -1.0 0.0
vn -0.0 -1.0 0.0
vn 0.0 -1.0 0.0
vn 0.0 -1.0 0.0
vn 0.0 -1.0 0.0
vn -0.0 -1.0 0.0
vn 0.0 -1.0 0.0
vn 0.0 -1.0 0.0
vn 0.0 -1.0 0.0
vn -0.0 -1.0 0.0
vn 0.0 -1.0 0.0
vn 0.0 -1.0 0.0
vn 0.0 -1.0 0.0
vn 0.0 -1.0 0.0
vn 0.0 -1.0 0.0
vn 0.0 -1.0 0.0
vn 0.0 -1.0 0.0
vn 0.0 -1.0 0.0
vn 0.0 -1.0 0.0
vn 0.0 -1.0 0.0
vn 0.0 -1.0 0.0
vn 0.0 -1.0 0.0
vn 0.0 -1.0 0.0
vn -0.0 -1.0 0.0
vn 0.0 -1.0 0.0
vn 0.0 -1.0 0.0
vn 0.0 -1.0 0.0
vn 0.0 -1.0 0.0
vn 0.0 -1.0 0.0
vn -1.0 -0.0 0.0
vn -1.0 0.0 -0.0
vn -1.0 -0.0 0.0
vn -1.0 0.0 -0.0
vn -0.7071112990379333 -0.0 -0.7071022987365723
vn -0.7071112990379333 -0.0 -0.7071022987365723
vn -0.7071112990379333 0.0 0.7071022987365723
vn -0.7071112990379333 0.0 0.7071022987365723
vn -0.7071065902709961 0.0 0.7071070075035095
vn -0.7071065902709961 0.0 0.7071070075035095
vn 0.7071067094802856 0.0 -0.7071068286895752
vn 0.7071067094802856 0.0 -0.7071068286895752
vn 1.0 0.0 0.0
vn 1.0 0.0 0.0
vn 1.0 0.0 0.0
vn 1.0 0.0 0.0
vn 1.0 0.0 0.0
vn 1.0 0.0 0.0
vn 1.0 0.0 0.0
vn 1.0 0.0 0.0
vn 0.0 1.0 0.0
vn 0.0 1.0 -0.0
vn 0.0 1.0 0.0
vn 0.0 1.0 0.0
vn 0.0 1.0 0.0
vn 0.0 1.0 0.0
vn 0.0 1.0 0.0
vn 0.0 1.0 0.0
vn 0.0 1.0 0.0
vn 0.0 1.0 0.0
vn 0.0 1.0 0.0
vn 0.0 1.0 -0.0
vn 0.0 1.0 0.0
vn 0.0 1.0 0.0
vn 0.0 1.0 0.0
vn 0.0 1.0 -0.0
vn 0.0 1.0 0.0
vn 0.0 1.0 0.0
vn 0.0 1.0 -0.0
vn 0.0 1.0 0.0
vn 0.0 1.0 0.0
vn 0.0 1.0 -0.0
vn 0.0 1.0 -0.0
vn 0.0 1.0 0.0
vn 0.0 1.0 0.0
vn 0.0 1.0 -0.0
vn 0.0 1.0 0.0
vn 0.0 1.0 0.0
vn 0.0 1.0 0.0
vn 0.0 1.0 0.0
vn 0.0 1.0 -0.0
vn 0.0 1.0 0.0
vn 0.0 1.0 0.0
vn 0.0 1.0 0.0
vn 0.0 1.0 0.0
vn 0.0 1.0 0.0
vn 0.0 1.0 -0.0
vn 0.0 1.0 0.0
vn 0.0 1.0 0.0
vn 0.0 1.0 0.0
vn 0.0 1.0 0.0
vn 0.0 1.0 -0.0
vn 0.0 1.0 0.0
vn 0.0 1.0 0.0
vn 0.0 1.0 0.0
vn 0.0 1.0 0.0
vn 0.0 1.0 0.0
vn 0.0 1.0 0.0
vn 0.0 1.0 0.0
vn 0.0 1.0 0.0
vn 0.0 1.0 0.0
vn 0.0 1.0 0.0
vn 0.0 1.0 0.0
vn 0.0 1.0 0.0
vn 0.0 1.0 -0.0
vn 0.0 1.0 -0.0
vn 0.0 1.0 -0.0
vn 0.0 1.0 -0.0
vn 0.0 1.0 0.0
vn 0.0 1.0 0.0
vn 0.0 1.0 -0.0
vn 0.0 1.0 -0.0
vn 0.0 1.0 0.0
vn 0.0 1.0 0.0
vn 0.0 1.0 0.0
vn 0.0 1.0 -0.0
vn 0.0 1.0 0.0
vn 0.0 1.0 0.0
vn 0.0 1.0 0.0
vn 0.0 1.0 0.0
vn 0.0 1.0 -0.0
vn 0.0 1.0 -0.0
vn 0.0 1.0 -0.0
vn 0.0 1.0 0.0
vn 0.0 1.0 0.0
vn 0.0 1.0 0.0
vn 0.0 1.0 0.0
vn 0.0 1.0 0.0
vn 0.0 1.0 0.0
vn -1.0 0.0 -0.0
vn -1.0 -0.0 0.0
vn -1.0 0.0 0.0
vn -1.0 -0.0 -0.0
vn 0.0 0.0 -1.0
vn 0.0 0.0 -1.0
vn -2.5619479291023e-18 0.0 -1.0
vn -2.5619479291023e-18 0.0 -1.0
vn 0.0 0.0 1.0
vn 0.0 0.0 1.0
vn 0.0 0.0 1.0
vn 0.0 0.0 1.0
vn 0.0 0.0 1.0
vn 0.0 0.0 1.0
vn 0.0 0.0 1.0
vn 0.0 0.0 1.0
vn 0.0 0.0 1.0
vn 0.0 0.0 1.0
vn 0.0 0.0 1.0
vn 0.0 0.0 1.0
vn -0.7071067094802856 0.0 0.70710688829422
vn -0.7071067094802856 0.0 0.70710688829422
vn 0.0 0.0 1.0
vn 0.0 0.0 1.0
vn 0.7071067094802856 -0.0 0.70710688829422
vn 0.7071067094802856 0.0 0.70710688829422
vn -1.0 0.0 -0.0
vn -1.0 -0.0 0.0
vn -1.0 -0.0 0.0
vn -1.0 0.0 -0.0
vn -0.7071066498756409 0.0 -0.7071069478988647
vn -0.7071066498756409 -0.0 -0.7071069478988647
vn 0.0 0.0 -1.0
vn 0.0 0.0 -1.0
vn 0.0 0.0 -1.0
vn 0.0 0.0 -1.0
vn -0.7071090340614319 0.0 -0.707104504108429
vn -0.7071090340614319 -0.0 -0.707104504108429
vn 0.7071090340614319 0.0 -0.707104504108429
vn 0.7071090340614319 0.0 -0.707104504108429
vn 0.7071067690849304 0.0 -0.7071067690849304
vn 0.7071067690849304 0.0 -0.7071067690849304
vn 1.0 0.0 0.0
vn 1.0 0.0 0.0
vn 1.0 0.0 0.0
vn 1.0 0.0 0.0
vn -1.0 0.0 -0.0
vn -1.0 -0.0 0.0
vn -1.0 0.0 -0.0
vn -1.0 -0.0 0.0
vn -1.0 0.0 -0.0
vn -1.0 -0.0 0.0
vn -1.0 -0.0 0.0
vn -1.0 0.0 -0.0
vn -1.0 0.0 -0.0
vn -1.0 -0.0 0.0
vn -0.7071068286895752 0.0 -0.7071067094802856
vn -0.7071068286895752 -0.0 -0.7071067094802856
vn 0.70710688829422 -0.0 0.7071066498756409
vn 0.70710688829422 0.0 0.7071066498756409
vn 1.0 0.0 0.0
vn 1.0 0.0 0.0
vn 1.0 0.0 0.0
vn 1.0 0.0 0.0
vn 0.707103431224823 -0.0 0.7071101665496826
vn 0.707103431224823 0.0 0.7071101665496826
vn -1.0 -0.0 0.0
vn -1.0 0.0 -0.0
vn 0.707103431224823 0.0 -0.7071101665496826
vn 0.707103431224823 0.0 -0.7071101665496826
vn 0.70710688829422 0.0 -0.7071066498756409
vn 0.70710688829422 0.0 -0.7071066498756409
vn -0.7071067690849304 0.0 0.7071068286895752
vn -0.7071067690849304 0.0 0.7071068286895752
vn -0.7071107625961304 0.0 0.7071027755737305
vn -0.7071107625961304 0.0 0.7071027755737305
vn -0.7730265855789185 0.0 0.6343737244606018
vn -0.7730265855789185 0.0 0.6343737244606018
vn -0.8819084763526917 0.0 0.47142067551612854
vn -0.8819084763526917 0.0 0.47142067551612854
vn -0.9569482207298279 0.0 0.29025858640670776
vn -0.9569482207298279 0.0 0.29025858640670776
vn -0.9951801300048828 0.0 0.09806378930807114
vn -0.9951801300048828 0.0 0.09806378930807114
vn 0.0 0.0 -1.0
vn 0.0 0.0 -1.0
vn 0.0 0.0 -1.0
vn 0.0 0.0 -1.0
vn 1.0 0.0 0.0
vn 1.0 0.0 0.0
vn 1.0 0.0 2.5094099243005985e-08
vn 1.0 0.0 2.5094099243005985e-08
vn 1.0 0.0 0.0
vn 1.0 0.0 0.0
vn -0.9914451241493225 -0.0 -0.13052476942539215
vn -0.9914451241493225 0.0 -0.13052476942539215
vn -0.9238852858543396 -0.0 -0.3826695382595062
vn -0.9238852858543396 0.0 -0.3826695382595062
vn -0.7933526635169983 -0.0 -0.608762264251709
vn -0.7933526635169983 0.0 -0.608762264251709
vn -0.7070980072021484 -0.0 -0.7071155309677124
vn -0.7070980072021484 0.0 -0.7071155309677124
vn 0.0 0.0 1.0
vn 0.0 0.0 1.0
vn 0.0 0.0 1.0
vn 0.0 0.0 1.0
vn 0.7071067690849304 0.0 -0.7071067690849304
vn 0.7071067690849304 0.0 -0.7071067690849304
vn 0.0 0.0 -1.0
vn 0.0 0.0 -1.0
vn 0.0 0.0 -1.0
vn 0.0 0.0 -1.0
vn 0.0 0.0 -1.0
vn 0.0 0.0 -1.0
vn 0.0 0.0 -1.0
vn 0.0 0.0 -1.0
vn -0.7071064710617065 0.0 0.7071070671081543
vn -0.7071064710617065 0.0 0.7071070671081543
vn 0.0 0.0 1.0
vn 0.0 0.0 1.0
vn 0.0 0.0 1.0
vn 0.0 0.0 1.0
vn 0.0 0.0 -1.0
vn 0.0 0.0 -1.0
vn -0.7071067690849304 0.0 -0.7071067690849304
vn -0.7071067690849304 -0.0 -0.7071067690849304
vn 0.7071065902709961 0.0 0.7071070075035095
vn 0.7071065902709961 -0.0 0.7071070075035095
vn 0.7071112990379333 -0.0 0.7071022987365723
vn 0.7071112990379333 0.0 0.7071022987365723
vn -0.7071112990379333 0.0 0.7071022987365723
vn -0.7071112990379333 0.0 0.7071022987365723
vn -0.7071065902709961 0.0 -0.7071070075035095
vn -0.7071065902709961 -0.0 -0.7071070075035095
f 1//1 2//1 3//1 
f 1//2 3//2 4//2 
f 2//3 1//3 5//3 
f 2//4 5//4 6//4 
f 7//5 8//5 9//5 
f 7//6 10//6 8//6 
f 11//7 12//7 13//7 
f 14//8 15//8 16//8 
f 11//9 13//9 17//9 
f 18//10 19//10 20//10 
f 21//11 22//11 23//11 
f 14//12 16//12 24//12 
f 18//13 25//13 19//13 
f 26//14 11//14 17//14 
f 27//15 7//15 9//15 
f 6//16 23//16 22//16 
f 28//17 15//17 14//17 
f 29//18 26//18 17//18 
f 30//19 22//19 21//19 
f 30//20 21//20 31//20 
f 32//21 6//21 22//21 
f 32//22 33//22 6//22 
f 34//23 29//23 35//23 
f 34//24 35//24 36//24 
f 37//25 30//25 31//25 
f 38//26 33//26 32//26 
f 39//27 26//27 29//27 
f 39//28 29//28 34//28 
f 40//29 41//29 42//29 
f 40//30 28//30 14//30 
f 2//31 33//31 43//31 
f 44//32 7//32 27//32 
f 44//33 45//33 46//33 
f 2//34 6//34 33//34 
f 47//35 48//35 31//35 
f 49//36 41//36 40//36 
f 47//37 31//37 21//37 
f 49//38 40//38 14//38 
f 50//39 7//39 44//39 
f 50//40 44//40 46//40 
f 51//41 52//41 53//41 
f 54//42 50//42 46//42 
f 51//43 53//43 55//43 
f 54//44 49//44 56//44 
f 54//45 56//45 50//45 
f 57//46 26//46 39//46 
f 57//47 39//47 58//47 
f 54//48 41//48 49//48 
f 59//49 39//49 52//49 
f 59//50 52//50 51//50 
f 60//51 48//51 47//51 
f 61//52 25//52 18//52 
f 62//53 2//53 43//53 
f 58//54 39//54 59//54 
f 63//55 58//55 24//55 
f 64//56 60//56 47//56 
f 65//57 10//57 61//57 
f 66//58 63//58 24//58 
f 67//59 2//59 62//59 
f 68//60 10//60 65//60 
f 69//61 12//61 70//61 
f 71//62 66//62 24//62 
f 72//63 73//63 20//63 
f 71//64 24//64 16//64 
f 74//65 10//65 68//65 
f 74//66 8//66 10//66 
f 13//67 12//67 69//67 
f 75//68 64//68 47//68 
f 75//69 69//69 76//69 
f 75//70 76//70 77//70 
f 75//71 77//71 64//71 
f 75//72 13//72 69//72 
f 19//73 72//73 20//73 
f 3//74 2//74 67//74 
f 3//75 67//75 78//75 
f 3//76 78//76 79//76 
f 57//77 63//77 80//77 
f 3//78 79//78 72//78 
f 57//79 58//79 63//79 
f 3//80 72//80 19//80 
f 81//81 82//81 65//81 
f 81//82 61//82 18//82 
f 81//83 65//83 61//83 
f 83//84 62//84 43//84 
f 83//85 84//85 62//85 
f 85//86 79//86 78//86 
f 85//87 86//87 79//87 
f 87//88 67//88 62//88 
f 84//89 87//89 62//89 
f 85//90 67//90 87//90 
f 85//91 78//91 67//91 
f 72//92 79//92 86//92 
f 88//93 72//93 86//93 
f 19//94 89//94 4//94 
f 19//95 4//95 3//95 
f 89//96 19//96 25//96 
f 89//97 25//97 90//97 
f 91//98 73//98 72//98 
f 91//99 72//99 88//99 
f 23//100 6//100 5//100 
f 92//101 23//101 5//101 
f 93//102 33//102 38//102 
f 93//103 38//103 94//103 
f 95//104 96//104 97//104 
f 98//105 99//105 100//105 
f 98//106 101//106 99//106 
f 102//107 103//107 104//107 
f 102//108 105//108 103//108 
f 106//109 107//109 108//109 
f 109//110 110//110 89//110 
f 111//111 92//111 112//111 
f 109//112 89//112 90//112 
f 106//113 108//113 113//113 
f 114//114 115//114 116//114 
f 5//115 112//115 92//115 
f 117//116 105//116 102//116 
f 114//117 118//117 115//117 
f 119//118 105//118 117//118 
f 120//119 107//119 106//119 
f 121//120 111//120 112//120 
f 121//121 122//121 111//121 
f 123//122 114//122 116//122 
f 124//123 112//123 5//123 
f 124//124 5//124 93//124 
f 125//125 122//125 121//125 
f 94//126 124//126 93//126 
f 126//127 127//127 128//127 
f 126//128 128//128 119//128 
f 129//129 119//129 117//129 
f 129//130 126//130 119//130 
f 1//131 83//131 93//131 
f 130//132 131//132 132//132 
f 1//133 93//133 5//133 
f 133//134 122//134 134//134 
f 130//135 114//135 123//135 
f 133//136 111//136 122//136 
f 135//137 120//137 106//137 
f 135//138 136//138 137//138 
f 138//139 130//139 132//139 
f 138//140 114//140 130//140 
f 139//141 135//141 106//141 
f 140//142 141//142 142//142 
f 139//143 136//143 135//143 
f 140//144 142//144 143//144 
f 144//145 138//145 132//145 
f 145//146 133//146 134//146 
f 144//147 139//147 146//147 
f 147//148 143//148 129//148 
f 144//149 146//149 138//149 
f 117//150 95//150 129//150 
f 147//151 140//151 143//151 
f 144//152 136//152 139//152 
f 98//153 109//153 101//153 
f 84//154 83//154 1//154 
f 101//155 109//155 90//155 
f 148//156 133//156 145//156 
f 97//157 147//157 129//157 
f 87//158 84//158 1//158 
f 96//159 118//159 97//159 
f 99//160 101//160 113//160 
f 149//161 118//161 96//161 
f 150//162 99//162 113//162 
f 151//163 152//163 104//163 
f 88//164 110//164 91//164 
f 153//165 118//165 149//165 
f 153//166 115//166 118//166 
f 103//167 151//167 104//167 
f 154//168 150//168 113//168 
f 154//169 113//169 108//169 
f 155//170 133//170 148//170 
f 155//171 151//171 103//171 
f 155//172 148//172 156//172 
f 155//173 156//173 157//173 
f 155//174 157//174 151//174 
f 89//175 110//175 88//175 
f 4//176 87//176 1//176 
f 4//177 88//177 86//177 
f 4//178 86//178 85//178 
f 4//179 85//179 87//179 
f 4//180 89//180 88//180 
f 95//181 158//181 96//181 
f 95//182 97//182 129//182 
f 110//183 109//183 18//183 
f 110//184 18//184 20//184 
f 22//185 124//185 32//185 
f 112//186 124//186 22//186 
f 109//187 98//187 81//187 
f 18//188 109//188 81//188 
f 46//189 136//189 144//189 
f 46//190 144//190 54//190 
f 91//191 110//191 20//191 
f 91//192 20//192 73//192 
f 132//193 131//193 42//193 
f 132//194 42//194 41//194 
f 101//195 25//195 61//195 
f 101//196 90//196 25//196 
f 146//197 139//197 50//197 
f 146//198 50//198 56//198 
f 135//199 137//199 45//199 
f 135//200 45//200 44//200 
f 100//201 99//201 65//201 
f 100//202 65//202 82//202 
f 101//203 61//203 10//203 
f 101//204 10//204 113//204 
f 106//205 113//205 10//205 
f 106//206 10//206 7//206 
f 50//207 139//207 106//207 
f 50//208 106//208 7//208 
f 137//209 136//209 46//209 
f 137//210 46//210 45//210 
f 104//211 70//211 12//211 
f 104//212 152//212 70//212 
f 27//213 135//213 44//213 
f 120//214 135//214 27//214 
f 9//215 107//215 120//215 
f 9//216 120//216 27//216 
f 68//217 150//217 154//217 
f 68//218 154//218 74//218 
f 108//219 107//219 9//219 
f 108//220 9//220 8//220 
f 74//221 154//221 108//221 
f 74//222 108//222 8//222 
f 65//223 99//223 150//223 
f 65//224 150//224 68//224 
f 100//225 82//225 81//225 
f 100//226 81//226 98//226 
f 121//227 30//227 37//227 
f 121//228 37//228 125//228 
f 138//229 146//229 56//229 
f 138//230 56//230 49//230 
f 147//231 97//231 58//231 
f 147//232 58//232 59//232 
f 96//233 158//233 80//233 
f 96//234 80//234 63//234 
f 105//235 29//235 17//235 
f 105//236 119//236 29//236 
f 131//237 130//237 40//237 
f 131//238 40//238 42//238 
f 114//239 138//239 49//239 
f 114//240 49//240 14//240 
f 40//241 130//241 123//241 
f 40//242 123//242 28//242 
f 116//243 15//243 28//243 
f 116//244 28//244 123//244 
f 149//245 66//245 71//245 
f 149//246 71//246 153//246 
f 15//247 116//247 115//247 
f 15//248 115//248 16//248 
f 118//249 14//249 24//249 
f 118//250 114//250 14//250 
f 16//251 115//251 153//251 
f 16//252 153//252 71//252 
f 66//253 149//253 96//253 
f 66//254 96//254 63//254 
f 118//255 24//255 58//255 
f 118//256 58//256 97//256 
f 143//257 52//257 39//257 
f 143//258 39//258 129//258 
f 142//259 53//259 52//259 
f 142//260 52//260 143//260 
f 142//261 55//261 53//261 
f 141//262 55//262 142//262 
f 140//263 51//263 55//263 
f 140//264 55//264 141//264 
f 147//265 59//265 51//265 
f 147//266 51//266 140//266 
f 80//267 158//267 95//267 
f 80//268 95//268 57//268 
f 32//269 124//269 94//269 
f 32//270 94//270 38//270 
f 117//271 26//271 57//271 
f 117//272 57//272 95//272 
f 102//273 11//273 26//273 
f 102//274 26//274 117//274 
f 132//275 41//275 54//275 
f 132//276 54//276 144//276 
f 119//277 35//277 29//277 
f 119//278 128//278 35//278 
f 128//279 36//279 35//279 
f 128//280 127//280 36//280 
f 127//281 34//281 36//281 
f 127//282 126//282 34//282 
f 126//283 39//283 34//283 
f 126//284 129//284 39//284 
f 11//285 104//285 12//285 
f 102//286 104//286 11//286 
f 30//287 112//287 22//287 
f 121//288 112//288 30//288 
f 155//289 103//289 13//289 
f 75//290 155//290 13//290 
f 13//291 103//291 105//291 
f 13//292 105//292 17//292 
f 70//293 152//293 151//293 
f 70//294 151//294 69//294 
f 23//295 92//295 111//295 
f 23//296 111//296 21//296 
f 31//297 122//297 125//297 
f 31//298 125//298 37//298 
f 157//299 76//299 69//299 
f 157//300 69//300 151//300 
f 157//301 77//301 76//301 
f 157//302 156//302 77//302 
f 145//303 48//303 60//303 
f 145//304 134//304 48//304 
f 47//305 133//305 155//305 
f 47//306 155//306 75//306 
f 21//307 133//307 47//307 
f 111//308 133//308 21//308 
f 134//309 122//309 31//309 
f 48//310 134//310 31//310 
f 64//311 148//311 145//311 
f 64//312 145//312 60//312 
f 148//313 64//313 77//313 
f 148//314 77//314 156//314 
f 93//315 83//315 43//315 
f 93//316 43//316 33//316 
