# Created by FreeCAD <http://www.freecadweb.org>
v -80.000366 0.000000 71.699997
v -80.000366 71.000000 70.400002
v -80.000366 0.000000 70.400002
v -80.000366 71.000000 71.699997
v -80.000366 0.000000 9.599998
v -80.000366 71.000000 8.299999
v -80.000366 0.000000 8.299999
v -80.000366 71.000000 9.599998
v -79.700363 71.000000 72.000000
v -79.700363 0.000000 72.000000
v -74.976097 71.000000 72.000000
v -74.976097 0.000000 72.000000
v -68.576103 0.000000 78.399994
v -68.576103 71.000000 78.399994
v -8.000368 71.000000 40.299995
v -8.000368 0.000000 45.024261
v -8.000368 0.000000 40.299995
v -8.000368 71.000000 45.024261
v -8.000368 71.000000 39.700005
v -8.000368 0.000000 39.700005
v -8.000368 0.000000 34.975735
v -8.000368 71.000000 34.975735
v -79.700363 71.000000 7.999997
v -79.700363 0.000000 7.999997
v -74.976097 71.000000 7.999997
v -74.976097 0.000000 7.999997
v -68.576103 71.000000 1.599997
v -68.576103 0.000000 1.599997
v -75.500366 71.000000 0.000000
v -0.000367 71.000000 0.000000
v -0.000367 0.000000 0.000000
v -75.500366 0.000000 0.000000
v -0.000367 71.000000 35.500000
v -1.600364 71.000000 35.500000
v -1.600364 0.000000 35.500000
v -0.000367 0.000000 35.500000
v -1.600364 0.000000 28.575739
v -1.600364 71.000000 28.575739
v -8.300366 71.000000 40.000000
v -8.300366 0.000000 40.000000
v -1.600364 0.000000 44.500000
v -1.600364 71.000000 44.500000
v -0.000367 71.000000 44.500000
v -0.000367 0.000000 44.500000
v -0.000367 0.000000 80.000000
v -0.000367 71.000000 80.000000
v -75.500366 71.000000 80.000000
v -75.500366 0.000000 80.000000
v -75.500366 71.000000 1.599997
v -75.500366 0.000000 1.599997
v -75.500366 71.000000 78.399994
v -75.500366 0.000000 78.399994
v -74.313362 71.000000 70.400002
v -74.313362 0.000000 70.400002
v -66.313354 71.000000 78.399994
v -66.313354 0.000000 78.399994
v -1.600364 71.000000 53.687004
v -9.600365 0.000000 45.687000
v -1.600364 0.000000 53.687004
v -9.600365 71.000000 45.687000
v -9.600365 71.000000 34.312996
v -9.600365 0.000000 34.312996
v -1.600364 71.000000 26.312992
v -1.600364 0.000000 26.312992
v -1.600364 71.000000 51.424259
v -1.600364 0.000000 51.424259
v -1.600364 71.000000 78.399994
v -1.600364 0.000000 78.399994
v -1.600364 71.000000 1.599997
v -1.600364 0.000000 1.599997
v -66.313354 71.000000 1.599997
v -66.313354 0.000000 1.599997
v -74.313362 71.000000 9.599998
v -74.313362 0.000000 9.599998
vn -1.000000 0.000000 0.000000
vn -1.000000 0.000000 0.000000
vn -1.000000 0.000000 0.000000
vn -1.000000 0.000000 0.000000
vn -0.707107 0.000000 0.707107
vn -0.707107 0.000000 0.707107
vn -0.707107 0.000000 0.707107
vn -0.707107 0.000000 0.707107
vn 1.000000 0.000000 0.000000
vn 1.000000 0.000000 0.000000
vn 1.000000 0.000000 0.000000
vn 1.000000 0.000000 0.000000
vn -0.707106 0.000000 -0.707108
vn -0.707106 -0.000000 -0.707108
vn 0.000000 0.000000 -1.000000
vn 0.000000 0.000000 -1.000000
vn -0.707107 -0.000000 -0.707106
vn -0.707107 -0.000000 -0.707106
vn 0.000000 0.000000 -1.000000
vn 0.000000 0.000000 -1.000000
vn 0.000000 0.000000 1.000000
vn 0.000000 0.000000 1.000000
vn 0.707106 -0.000000 0.707107
vn 0.707106 0.000000 0.707107
vn 0.707103 -0.000000 0.707110
vn 0.707103 0.000000 0.707110
vn 0.707103 0.000000 -0.707110
vn 0.707103 0.000000 -0.707110
vn 0.000000 0.000000 -1.000000
vn 0.000000 0.000000 -1.000000
vn 1.000000 0.000000 0.000000
vn 1.000000 0.000000 0.000000
vn 1.000000 0.000000 0.000000
vn 1.000000 0.000000 0.000000
vn 0.000000 0.000000 1.000000
vn 0.000000 0.000000 1.000000
vn -1.000000 0.000000 -0.000000
vn -1.000000 -0.000000 0.000000
vn -1.000000 0.000000 -0.000000
vn -1.000000 -0.000000 0.000000
vn 0.000000 0.000000 1.000000
vn 0.000000 0.000000 1.000000
vn 0.000000 0.000000 -1.000000
vn 0.000000 0.000000 -1.000000
vn 0.707106 0.000000 -0.707107
vn 0.707106 0.000000 -0.707107
vn -0.707107 0.000000 0.707107
vn -0.707107 0.000000 0.707107
vn -1.000000 0.000000 0.000000
vn -1.000000 -0.000000 -0.000000
vn -0.707107 -0.000000 -0.707107
vn -0.707107 -0.000000 -0.707107
vn -1.000000 0.000000 -0.000000
vn -1.000000 -0.000000 0.000000
vn -1.000000 0.000000 -0.000000
vn -1.000000 -0.000000 0.000000
vn -1.000000 0.000000 -0.000000
vn -1.000000 -0.000000 0.000000
vn -1.000000 0.000000 -0.000000
vn -1.000000 -0.000000 0.000000
vn 0.000000 0.000000 1.000000
vn 0.000000 0.000000 1.000000
vn 0.000000 0.000000 1.000000
vn 0.000000 0.000000 1.000000
vn 0.707107 -0.000000 0.707107
vn 0.707107 0.000000 0.707107
vn 0.000000 0.000000 1.000000
vn 0.000000 0.000000 1.000000
vn 0.000000 0.000000 -1.000000
vn 0.000000 0.000000 -1.000000
vn 0.000000 0.000000 -1.000000
vn 0.000000 0.000000 -1.000000
vn 0.707106 0.000000 -0.707107
vn 0.707106 0.000000 -0.707107
vn 0.000000 -1.000000 0.000000
vn -0.000000 -1.000000 0.000000
vn 0.000000 -1.000000 0.000000
vn 0.000000 -1.000000 0.000000
vn 0.000000 -1.000000 0.000000
vn 0.000000 -1.000000 0.000000
vn -0.000000 -1.000000 0.000000
vn 0.000000 -1.000000 0.000000
vn 0.000000 -1.000000 0.000000
vn 0.000000 -1.000000 0.000000
vn 0.000000 -1.000000 0.000000
vn -0.000000 -1.000000 0.000000
vn 0.000000 -1.000000 0.000000
vn 0.000000 -1.000000 0.000000
vn -0.000000 -1.000000 0.000000
vn 0.000000 -1.000000 0.000000
vn -0.000000 -1.000000 0.000000
vn 0.000000 -1.000000 0.000000
vn 0.000000 -1.000000 0.000000
vn -0.000000 -1.000000 0.000000
vn 0.000000 -1.000000 0.000000
vn 0.000000 -1.000000 0.000000
vn 0.000000 -1.000000 0.000000
vn 0.000000 -1.000000 0.000000
vn -0.000000 -1.000000 0.000000
vn 0.000000 -1.000000 0.000000
vn 0.000000 -1.000000 0.000000
vn 0.000000 -1.000000 0.000000
vn 0.000000 -1.000000 0.000000
vn 0.000000 -1.000000 0.000000
vn 0.000000 -1.000000 0.000000
vn 0.000000 -1.000000 0.000000
vn 0.000000 -1.000000 0.000000
vn 0.000000 -1.000000 0.000000
vn -0.000000 -1.000000 0.000000
vn -0.000000 1.000000 0.000000
vn -0.000000 1.000000 0.000000
vn 0.000000 1.000000 0.000000
vn -0.000000 1.000000 0.000000
vn -0.000000 1.000000 0.000000
vn -0.000000 1.000000 0.000000
vn 0.000000 1.000000 0.000000
vn -0.000000 1.000000 0.000000
vn 0.000000 1.000000 0.000000
vn -0.000000 1.000000 0.000000
vn 0.000000 1.000000 0.000000
vn -0.000000 1.000000 0.000000
vn 0.000000 1.000000 0.000000
vn -0.000000 1.000000 0.000000
vn -0.000000 1.000000 0.000000
vn 0.000000 1.000000 0.000000
vn -0.000000 1.000000 0.000000
vn 0.000000 1.000000 0.000000
vn 0.000000 1.000000 0.000000
vn 0.000000 1.000000 0.000000
vn 0.000000 1.000000 0.000000
vn -0.000000 1.000000 0.000000
vn -0.000000 1.000000 0.000000
vn -0.000000 1.000000 0.000000
vn 0.000000 1.000000 -0.000000
vn 0.000000 1.000000 0.000000
vn 0.000000 1.000000 0.000000
vn -0.000000 1.000000 0.000000
vn 0.000000 1.000000 0.000000
vn 0.000000 1.000000 0.000000
vn -0.000000 1.000000 0.000000
vn 0.000000 1.000000 0.000000
vn -0.000000 1.000000 0.000000
vn -0.000000 1.000000 0.000000
vn -0.000000 1.000000 0.000000
f 1//1 2//1 3//1
f 1//2 4//2 2//2
f 5//3 6//3 7//3
f 5//4 8//4 6//4
f 9//5 1//5 10//5
f 4//6 1//6 9//6
f 11//7 12//7 13//7
f 11//8 13//8 14//8
f 15//9 16//9 17//9
f 18//10 16//10 15//10
f 19//11 20//11 21//11
f 19//12 21//12 22//12
f 6//13 23//13 24//13
f 6//14 24//14 7//14
f 24//15 23//15 25//15
f 24//16 25//16 26//16
f 27//17 28//17 26//17
f 25//18 27//18 26//18
f 29//19 30//19 31//19
f 32//20 29//20 31//20
f 33//21 34//21 35//21
f 33//22 35//22 36//22
f 37//23 38//23 22//23
f 37//24 22//24 21//24
f 20//25 19//25 39//25
f 20//26 39//26 40//26
f 40//27 39//27 15//27
f 40//28 15//28 17//28
f 41//29 42//29 43//29
f 41//30 43//30 44//30
f 30//31 36//31 31//31
f 33//32 36//32 30//32
f 43//33 45//33 44//33
f 46//34 45//34 43//34
f 45//35 47//35 48//35
f 46//36 47//36 45//36
f 49//37 29//37 32//37
f 49//38 32//38 50//38
f 47//39 51//39 52//39
f 47//40 52//40 48//40
f 9//41 10//41 12//41
f 11//42 9//42 12//42
f 3//43 2//43 53//43
f 3//44 53//44 54//44
f 54//45 53//45 55//45
f 54//46 55//46 56//46
f 57//47 58//47 59//47
f 60//48 58//48 57//48
f 61//49 62//49 58//49
f 60//50 61//50 58//50
f 63//51 64//51 62//51
f 61//52 63//52 62//52
f 34//53 38//53 37//53
f 34//54 37//54 35//54
f 65//55 42//55 41//55
f 65//56 41//56 66//56
f 67//57 57//57 59//57
f 67//58 59//58 68//58
f 63//59 69//59 70//59
f 63//60 70//60 64//60
f 27//61 49//61 50//61
f 27//62 50//62 28//62
f 69//63 71//63 72//63
f 69//64 72//64 70//64
f 72//65 71//65 73//65
f 72//66 73//66 74//66
f 73//67 8//67 5//67
f 73//68 5//68 74//68
f 56//69 55//69 67//69
f 56//70 67//70 68//70
f 52//71 51//71 14//71
f 52//72 14//72 13//72
f 66//73 18//73 65//73
f 16//74 18//74 66//74
f 3//75 10//75 1//75
f 12//76 10//76 3//76
f 13//77 48//77 52//77
f 54//78 13//78 12//78
f 54//79 12//79 3//79
f 56//80 48//80 13//80
f 56//81 13//81 54//81
f 24//82 5//82 7//82
f 26//83 74//83 5//83
f 26//84 5//84 24//84
f 68//85 45//85 56//85
f 28//86 50//86 32//86
f 28//87 74//87 26//87
f 72//88 74//88 28//88
f 72//89 28//89 32//89
f 59//90 45//90 68//90
f 66//91 59//91 58//91
f 66//92 58//92 16//92
f 17//93 16//93 58//93
f 17//94 58//94 40//94
f 44//95 66//95 41//95
f 44//96 59//96 66//96
f 62//97 20//97 40//97
f 62//98 40//98 58//98
f 21//99 20//99 62//99
f 37//100 36//100 35//100
f 37//101 21//101 62//101
f 64//102 36//102 37//102
f 64//103 37//103 62//103
f 31//104 64//104 70//104
f 31//105 70//105 72//105
f 32//106 31//106 72//106
f 31//107 36//107 64//107
f 44//108 45//108 59//108
f 45//109 48//109 56//109
f 6//110 8//110 23//110
f 49//111 27//111 29//111
f 8//112 25//112 23//112
f 25//113 73//113 27//113
f 8//114 73//114 25//114
f 27//115 71//115 29//115
f 73//116 71//116 27//116
f 4//117 9//117 2//117
f 2//118 11//118 53//118
f 9//119 11//119 2//119
f 71//120 30//120 29//120
f 71//121 69//121 30//121
f 47//122 14//122 51//122
f 11//123 14//123 53//123
f 14//124 55//124 53//124
f 47//125 55//125 14//125
f 69//126 63//126 30//126
f 61//127 38//127 63//127
f 22//128 38//128 61//128
f 61//129 19//129 22//129
f 39//130 19//130 61//130
f 34//131 33//131 38//131
f 63//132 33//132 30//132
f 38//133 33//133 63//133
f 39//134 60//134 15//134
f 61//135 60//135 39//135
f 60//136 18//136 15//136
f 60//137 65//137 18//137
f 42//138 65//138 43//138
f 60//139 57//139 65//139
f 65//140 57//140 43//140
f 55//141 46//141 67//141
f 67//142 46//142 57//142
f 57//143 46//143 43//143
f 47//144 46//144 55//144
